<svg width="124" height="124" viewBox="0 0 124 124" fill="none" xmlns="http://www.w3.org/2000/svg">
    <g clip-path="url(#clip0_412_303)">
        <path d="M87.5665 42.1681H85.3464V20.9444L63.1459 8.1258L40.9454 20.9444V41.4954H38.7253V19.6612L63.1459 5.56165L87.5665 19.6612V42.1681Z"
              fill="#F5B241"/>
        <path d="M66.0481 61.86L67.9703 60.7493L69.0799 62.6695L67.1577 63.7803L66.0481 61.86Z" fill="#F5B241"/>
        <path d="M65.237 64.8859L64.127 62.9656L63.1457 63.5295L62.1645 62.9656L61.0544 64.8859L63.1457 66.0936L65.237 64.8859Z"
              fill="#F5B241"/>
        <path d="M57.2095 62.6622L58.3182 60.7414L60.2409 61.8512L59.1322 63.772L57.2095 62.6622Z" fill="#F5B241"/>
        <path d="M63.1459 61.1273L57.0386 57.5997L58.1486 55.6793L63.1459 58.5632L68.1411 55.6815L69.2511 57.6019L63.1459 61.1273Z"
              fill="#F5B241"/>
        <path d="M58.7056 50.42L30.955 34.4001L24.2948 38.2431L23.1848 38.8846V47.8559L43.1653 59.3913V64.5174L30.955 57.4665L24.2948 61.3116L23.1848 61.9554V70.9267L43.1653 82.462V87.5882L30.955 80.5395L24.2948 84.3846L23.1848 85.0284V93.9997L49.8254 109.38L50.9355 110.022L52.0455 109.38L58.7056 105.537V50.42ZM30.955 60.0329L43.1653 67.086V72.2121L26.5149 62.5992L30.955 60.0329ZM30.955 83.1036L43.1653 90.1545V95.2806L26.5149 85.67L30.955 83.1036ZM25.4049 92.7187V87.5926L45.3853 99.1258V81.1811L25.4049 69.6457V64.5196L45.3853 76.055V58.1081L25.4049 46.5727V41.4466L49.8254 55.5484V106.816L25.4049 92.7187ZM56.4856 104.254L52.0455 106.816V54.2652L26.5149 39.524L30.955 36.9621L56.4856 51.7032V104.254ZM98.1116 46.2552C97.854 46.1065 97.5876 45.991 97.3234 45.8667L97.3345 45.8467L91.7223 42.6055C91.4801 42.4509 91.2312 42.3072 90.9763 42.1748L90.6744 41.9994L90.6566 42.0282C89.206 41.3468 87.6123 41.0256 86.011 41.0921C84.4097 41.1586 82.8481 41.6107 81.459 42.4101L67.5858 50.42V105.537L74.246 109.38L75.356 110.022L76.4661 109.38L98.1116 96.8813C99.6284 96.003 100.888 94.7418 101.765 93.224C102.641 91.7061 103.104 89.9848 103.107 88.232V54.9068C103.117 53.151 102.66 51.4241 101.782 49.9036C100.904 48.3831 99.6374 47.1238 98.1116 46.2552ZM69.8059 104.254V51.7032L82.5712 44.3327C83.6711 43.6883 84.9145 43.329 86.1886 43.2875C87.4626 43.246 88.7268 43.5236 89.8663 44.0951L90.6766 44.5635C90.8387 44.6679 91.003 44.7589 91.1606 44.8766L91.1783 44.8522L91.5158 45.0475C90.32 45.2418 89.1692 45.651 88.1191 46.2552L74.246 54.2652V106.816L69.8059 104.254ZM100.887 88.232C100.884 89.5954 100.524 90.9344 99.8426 92.1152C99.1609 93.296 98.1812 94.2773 97.0015 94.9609L76.4661 106.816V55.5484L89.2314 48.1756C90.4101 47.4862 91.7512 47.1231 93.1168 47.1235C94.4823 47.1239 95.8231 47.4878 97.0015 48.1778C98.1881 48.8536 99.1733 49.8331 99.8561 51.0157C100.539 52.1983 100.895 53.5413 100.887 54.9068V88.232Z"
              fill="white"/>
        <path d="M93.6693 53.9455C92.8279 53.4525 91.8703 53.1928 90.8951 53.1932C89.9199 53.1936 88.9624 53.4541 88.1214 53.9477L80.9062 58.1103V99.128L93.6693 91.7597C94.5129 91.2716 95.2134 90.5705 95.7008 89.7266C96.1882 88.8827 96.4454 87.9256 96.4466 86.951V58.7519C96.4466 56.7428 95.4076 54.949 93.6693 53.9455ZM89.2314 55.8681C89.7366 55.5725 90.3112 55.4167 90.8965 55.4167C91.4817 55.4167 92.0564 55.5725 92.5615 55.8681C93.6049 56.4675 94.2266 57.5487 94.2266 58.7519V81.1833L83.1263 87.5926V59.3935L89.2314 55.8681ZM92.5615 89.8349L83.1263 95.2807V90.1546L94.2266 83.7453V86.951C94.2266 88.1365 93.5894 89.2421 92.5615 89.8349Z"
              fill="white"/>
        <path d="M57.2102 3.40979L59.1324 2.29906L60.242 4.21935L58.3198 5.33008L57.2102 3.40979Z" fill="#F5B241"/>
        <path d="M34.2852 16.6398V18.0917H36.5052V17.923L37.1712 17.5367L36.0612 15.6163L34.2852 16.6398ZM61.0545 1.18598L62.1646 3.10632L63.1458 2.54243L64.1271 3.10632L65.2371 1.18598L63.1458 -0.0217285L61.0545 1.18598Z"
              fill="#F5B241"/>
        <path d="M45.6746 10.0688L47.5968 8.95812L48.7064 10.8784L46.7842 11.9891L45.6746 10.0688Z" fill="#F5B241"/>
        <path d="M53.3652 5.62988L55.2875 4.51915L56.3971 6.43945L54.4749 7.55018L53.3652 5.62988Z" fill="#F5B241"/>
        <path d="M49.5195 7.84888L51.4398 6.73926L52.5494 8.65955L50.6292 9.76917L49.5195 7.84888Z" fill="#F5B241"/>
        <path d="M37.9832 14.5093L39.9054 13.3985L41.015 15.3188L39.0928 16.4296L37.9832 14.5093Z" fill="#F5B241"/>
        <path d="M34.2852 29.1919H36.5052V31.4119H34.2852V29.1919ZM34.2852 33.632H36.5052V35.852H34.2852V33.632ZM34.2852 24.7517H36.5052V26.9718H34.2852V24.7517ZM34.2852 20.3116H36.5052V22.5317H34.2852V20.3116Z"
              fill="#F5B241"/>
        <path d="M41.8262 12.2904L43.7484 11.1797L44.858 13.1L42.9358 14.2107L41.8262 12.2904Z" fill="#F5B241"/>
        <path d="M89.7864 29.192H92.0064V31.412H89.7864V29.192ZM89.7864 33.6321H92.0064V35.8521H89.7864V33.6321ZM89.7864 38.0722H92.0064V40.2922H89.7864V38.0722ZM90.2304 15.6163L89.1204 17.5367L89.7864 17.923V18.0917H92.0064V16.6398L90.2304 15.6163ZM89.7864 20.3117H92.0064V22.5318H89.7864V20.3117ZM89.7864 24.7518H92.0064V26.9719H89.7864V24.7518Z"
              fill="#F5B241"/>
        <path d="M69.8955 6.43579L71.0042 4.51496L72.927 5.62475L71.8183 7.54558L69.8955 6.43579Z" fill="#F5B241"/>
        <path d="M73.741 8.66003L74.8506 6.73975L76.7709 7.84937L75.6613 9.76965L73.741 8.66003Z" fill="#F5B241"/>
        <path d="M66.0505 4.2157L67.1592 2.29486L69.082 3.40465L67.9733 5.32549L66.0505 4.2157Z" fill="#F5B241"/>
        <path d="M77.5859 10.8759L78.6946 8.95502L80.6174 10.0648L79.5087 11.9856L77.5859 10.8759Z" fill="#F5B241"/>
        <path d="M85.2761 15.3159L86.3848 13.3951L88.3076 14.5049L87.1989 16.4257L85.2761 15.3159Z" fill="#F5B241"/>
        <path d="M81.4321 13.094L82.5408 11.1732L84.4636 12.2829L83.3549 14.2038L81.4321 13.094Z" fill="#F5B241"/>
        <path d="M62.0359 32.9282H64.2559V59.8464H62.0359V32.9282Z" fill="#F5B241"/>
        <path d="M63.1458 34.7664L39.2803 20.9865L40.3903 19.064L63.1458 32.2022L85.9014 19.064L87.0114 20.9865L63.1458 34.7664Z"
              fill="#F5B241"/>
    </g>
    <defs>
        <clipPath id="clip0_412_303">
            <rect width="110" height="110" fill="white" transform="translate(7)"/>
        </clipPath>
    </defs>
</svg>
