<svg width="32" height="32" viewBox="0 0 32 32" fill="currentColor" xmlns="http://www.w3.org/2000/svg">
    <path d="M28.3327 32H18.958C18.7807 32 18.61 31.9293 18.486 31.804L10.2593 23.536C10.0007 23.276 10.0007 22.8546 10.2593 22.5946L18.4873 14.344C18.6127 14.2186 18.7833 14.1466 18.9607 14.1466H28.3327C28.602 14.1466 28.8447 14.3093 28.9487 14.5573C29.0513 14.8066 28.9953 15.092 28.806 15.2826L21.0593 23.0666L28.806 30.8613C28.9967 31.0533 29.0527 31.3386 28.9487 31.5866C28.8447 31.8373 28.602 32 28.3327 32ZM19.2353 30.6666H26.73L19.646 23.5386C19.3873 23.2786 19.3873 22.8586 19.646 22.5986L26.7287 15.4813H19.2367L11.6727 23.0666L19.2353 30.6666ZM8.37 21.3946C8.19267 21.3946 8.022 21.324 7.898 21.1986L3.194 16.4706C2.93533 16.2106 2.93533 15.7906 3.194 15.5293L18.47 0.195953C18.6367 0.0292863 18.87 -0.0307137 19.082 0.0146197H28.3127C28.582 0.0146197 28.8247 0.177286 28.9287 0.425286C29.0313 0.67462 28.9753 0.959953 28.786 1.15062L8.84333 21.1986C8.718 21.324 8.54867 21.3946 8.37 21.3946ZM4.60733 16L8.37133 19.7826L26.7087 1.34795H19.2033L4.60733 16Z"
          fill="currentColor"/>
</svg>
