<svg width="113" height="37" viewBox="0 0 113 37" fill="none" xmlns="http://www.w3.org/2000/svg">
    <path d="M26.7109 37L25.7434 37.2528L25.9387 38H26.7109V37ZM38.1875 37V38H39.5658L39.1381 36.6897L38.1875 37ZM26.2285 0.361328L27.1792 0.0510359L26.954 -0.638672H26.2285V0.361328ZM12.7207 0.361328V-0.638672H11.9952L11.7701 0.0510359L12.7207 0.361328ZM0.761719 37L-0.188922 36.6897L-0.616606 38H0.761719V37ZM11.7305 37V38H12.5027L12.698 37.2528L11.7305 37ZM13.6348 29.7129V28.7129H12.8625L12.6673 29.4601L13.6348 29.7129ZM24.8066 29.7129L25.7742 29.4601L25.5789 28.7129H24.8066V29.7129ZM19.1191 8.81641V7.81641H18.3498L18.1526 8.56001L19.1191 8.81641ZM19.3223 8.81641L20.2888 8.56001L20.0916 7.81641H19.3223V8.81641ZM22.8516 22.1211V23.1211H24.1514L23.8181 21.8647L22.8516 22.1211ZM15.5898 22.1211L14.6233 21.8647L14.29 23.1211H15.5898V22.1211ZM26.7109 38H38.1875V36H26.7109V38ZM39.1381 36.6897L27.1792 0.0510359L25.2779 0.67162L37.2369 37.3103L39.1381 36.6897ZM26.2285 -0.638672H12.7207V1.36133H26.2285V-0.638672ZM11.7701 0.0510359L-0.188922 36.6897L1.71236 37.3103L13.6713 0.67162L11.7701 0.0510359ZM0.761719 38H11.7305V36H0.761719V38ZM12.698 37.2528L14.6023 29.9657L12.6673 29.4601L10.763 36.7472L12.698 37.2528ZM13.6348 30.7129H24.8066V28.7129H13.6348V30.7129ZM23.8391 29.9657L25.7434 37.2528L27.6784 36.7472L25.7742 29.4601L23.8391 29.9657ZM19.1191 9.81641H19.3223V7.81641H19.1191V9.81641ZM18.3557 9.07281L21.885 22.3775L23.8181 21.8647L20.2888 8.56001L18.3557 9.07281ZM22.8516 21.1211H15.5898V23.1211H22.8516V21.1211ZM16.5564 22.3775L20.0857 9.07281L18.1526 8.56001L14.6233 21.8647L16.5564 22.3775ZM51.6445 37V38H52.6445V37H51.6445ZM51.6445 17.7031V16.7031H50.6445V17.7031H51.6445ZM51.8477 17.7031L52.6522 17.1092L52.3524 16.7031H51.8477V17.7031ZM66.0918 37L65.2872 37.5939L65.587 38H66.0918V37ZM74.3438 37V38H75.3438V37H74.3438ZM74.3438 0.361328H75.3438V-0.638672H74.3438V0.361328ZM64.1875 0.361328V-0.638672H63.1875V0.361328H64.1875ZM64.1875 19.3535V20.3535H65.1875V19.3535H64.1875ZM63.9844 19.3535L63.1823 19.9508L63.4822 20.3535H63.9844V19.3535ZM49.8418 0.361328L50.6439 -0.235924L50.3439 -0.638672H49.8418V0.361328ZM41.4883 0.361328V-0.638672H40.4883V0.361328H41.4883ZM41.4883 37H40.4883V38H41.4883V37ZM52.6445 37V17.7031H50.6445V37H52.6445ZM51.6445 18.7031H51.8477V16.7031H51.6445V18.7031ZM51.0431 18.297L65.2872 37.5939L66.8963 36.4061L52.6522 17.1092L51.0431 18.297ZM66.0918 38H74.3438V36H66.0918V38ZM75.3438 37V0.361328H73.3438V37H75.3438ZM74.3438 -0.638672H64.1875V1.36133H74.3438V-0.638672ZM63.1875 0.361328V19.3535H65.1875V0.361328H63.1875ZM64.1875 18.3535H63.9844V20.3535H64.1875V18.3535ZM64.7864 18.7563L50.6439 -0.235924L49.0397 0.95858L63.1823 19.9508L64.7864 18.7563ZM49.8418 -0.638672H41.4883V1.36133H49.8418V-0.638672ZM40.4883 0.361328V37H42.4883V0.361328H40.4883ZM41.4883 38H51.6445V36H41.4883V38ZM79.4219 0.361328V-0.638672H78.4219V0.361328H79.4219ZM79.4219 37H78.4219V38H79.4219V37ZM90.1875 8.91797V7.91797H89.1875V8.91797H90.1875ZM90.1875 28.4434H89.1875V29.4434H90.1875V28.4434ZM78.4219 0.361328V37H80.4219V0.361328H78.4219ZM79.4219 38H95.0879V36H79.4219V38ZM95.0879 38C100.845 38 105.543 36.216 108.797 32.7951C112.044 29.381 113.734 24.4608 113.734 18.4141H111.734C111.734 24.0978 110.15 28.4706 107.347 31.4168C104.552 34.3563 100.426 36 95.0879 36V38ZM113.734 18.4141C113.734 12.3674 112.05 7.57012 108.792 4.28463C105.533 0.998258 100.835 -0.638672 95.0879 -0.638672V1.36133C100.462 1.36133 104.588 2.88553 107.371 5.69291C110.156 8.50117 111.734 12.7302 111.734 18.4141H113.734ZM95.0879 -0.638672H79.4219V1.36133H95.0879V-0.638672ZM90.1875 9.91797H93.5645V7.91797H90.1875V9.91797ZM93.5645 9.91797C95.917 9.91797 97.6681 10.6689 98.8462 12.0117C100.041 13.3739 100.766 15.4811 100.766 18.4141H102.766C102.766 15.1771 101.967 12.5363 100.35 10.6928C98.7156 8.83015 96.3662 7.91797 93.5645 7.91797V9.91797ZM100.766 18.4141C100.766 21.6762 100.081 23.9135 98.9135 25.3236C97.7751 26.698 96.0447 27.4434 93.5645 27.4434V29.4434C96.4671 29.4434 98.8372 28.551 100.454 26.5993C102.041 24.6831 102.766 21.9058 102.766 18.4141H100.766ZM93.5645 27.4434H90.1875V29.4434H93.5645V27.4434ZM91.1875 28.4434V8.91797H89.1875V28.4434H91.1875Z"
          fill="white"/>
</svg>
