<svg width="19" height="20" viewBox="0 0 19 20" fill="none" xmlns="http://www.w3.org/2000/svg">
    <path d="M14.5128 3.39191C14.2917 3.39111 14.0755 3.45597 13.8914 3.57827C13.7073 3.70056 13.5636 3.87477 13.4787 4.07881C13.3937 4.28285 13.3713 4.50752 13.4142 4.72433C13.4571 4.94114 13.5635 5.14032 13.7198 5.2966C13.8761 5.45288 14.0752 5.55923 14.292 5.60215C14.5089 5.64507 14.7335 5.62264 14.9376 5.53769C15.1416 5.45274 15.3158 5.30911 15.4381 5.125C15.5604 4.9409 15.6253 4.72463 15.6245 4.50361C15.6245 4.20877 15.5073 3.92601 15.2988 3.71752C15.0904 3.50904 14.8076 3.39191 14.5128 3.39191ZM9.56872 4.81893C8.64331 4.81813 7.73846 5.09187 6.96867 5.6055C6.19889 6.11914 5.59877 6.84958 5.24426 7.70439C4.88975 8.55921 4.79679 9.49998 4.97713 10.4076C5.15747 11.3153 5.60302 12.1491 6.25738 12.8035C6.91175 13.4578 7.74552 13.9034 8.65319 14.0837C9.56086 14.2641 10.5016 14.1711 11.3564 13.8166C12.2113 13.4621 12.9417 12.862 13.4553 12.0922C13.969 11.3224 14.2427 10.4175 14.2419 9.49212C14.2398 8.25337 13.7467 7.06597 12.8708 6.19004C11.9949 5.31411 10.8075 4.82107 9.56872 4.81893ZM9.56872 12.4998C8.97609 12.5006 8.39654 12.3256 7.9034 11.9969C7.41025 11.6682 7.02568 11.2007 6.79833 10.6534C6.57099 10.1061 6.51109 9.50367 6.62622 8.92233C6.74134 8.34099 7.02632 7.80686 7.44509 7.38752C7.86386 6.96818 8.39761 6.68249 8.97879 6.56658C9.55998 6.45066 10.1625 6.50975 10.7101 6.73635C11.2577 6.96296 11.7258 7.3469 12.0551 7.8396C12.3844 8.3323 12.5602 8.91161 12.5602 9.50425C12.557 10.2959 12.2405 11.0541 11.68 11.6131C11.1194 12.1722 10.3604 12.4866 9.56872 12.4876V12.4998Z" fill="white"/>
    <path d="M13.2757 19.0038H5.70001C4.95007 19.0028 4.20769 18.8539 3.5153 18.5659C2.8229 18.2778 2.19407 17.8561 1.66472 17.3248C1.13537 16.7936 0.715895 16.1633 0.430257 15.4699C0.144618 14.7765 -0.0015812 14.0336 1.28968e-05 13.2836V5.70386C0.00215172 4.19278 0.603372 2.74421 1.67186 1.67572C2.74036 0.607227 4.18893 0.00600696 5.70001 0.00386814H13.2757C14.026 0.00174196 14.7694 0.147549 15.4632 0.432949C16.1571 0.718349 16.7879 1.13774 17.3196 1.66714C17.8512 2.19654 18.2733 2.82556 18.5616 3.51822C18.85 4.21087 18.9989 4.95358 19 5.70386V13.2836C19.0016 14.0356 18.8546 14.7805 18.5674 15.4755C18.2803 16.1705 17.8586 16.8019 17.3267 17.3334C16.7948 17.865 16.1631 18.2862 15.4679 18.5728C14.7727 18.8595 14.0277 19.006 13.2757 19.0038ZM5.70001 1.79067C4.66249 1.79174 3.66778 2.20437 2.93415 2.938C2.20051 3.67163 1.78789 4.66635 1.78682 5.70386V13.2836C1.78789 14.3211 2.20051 15.3159 2.93415 16.0495C3.66778 16.7831 4.66249 17.1957 5.70001 17.1968H13.2757C14.314 17.1968 15.3097 16.7847 16.0442 16.0509C16.7787 15.3172 17.1919 14.3218 17.193 13.2836V5.70386C17.1919 4.66565 16.7787 3.67032 16.0442 2.93657C15.3097 2.20282 14.314 1.79067 13.2757 1.79067H5.70001Z" fill="white"/>
</svg>
