<svg width="19" height="19" viewBox="0 0 19 19" fill="none" xmlns="http://www.w3.org/2000/svg">
    <path d="M6.61594 18.9869C6.61594 15.2183 6.6509 11.4497 6.61594 7.6811C6.61594 6.96848 6.79947 6.74989 7.48992 6.80672C8.12666 6.86356 8.7672 6.86356 9.40394 6.80672C10.4309 6.71054 11.1257 6.8723 10.6799 8.09206C10.9858 8.30192 11.0645 8.09206 11.1781 7.98277C11.8227 7.29076 12.663 6.812 13.5867 6.61045C14.5105 6.40889 15.4737 6.49414 16.3477 6.85481C17.9995 7.51934 18.9697 9.08886 18.9697 11.0868V18.9869H15.146C15.146 17.4961 15.146 16.0052 15.1023 14.5144C15.0804 13.4914 15.1984 12.4596 14.9625 11.4541C14.7789 10.6671 14.3856 10.0507 13.5816 9.86269C13.2028 9.75468 12.8018 9.75259 12.422 9.85664C12.0421 9.9607 11.6981 10.1669 11.4272 10.4529C11.1798 10.7323 10.9908 11.0584 10.8714 11.4121C10.7521 11.7658 10.7048 12.1398 10.7324 12.5121C10.7324 14.698 10.6887 16.8359 10.6668 19L6.61594 18.9869ZM0.214023 18.9869C0.214023 15.2227 0.240243 11.4628 0.214023 7.70296C0.214023 7.03843 0.336381 6.74989 1.088 6.82858C1.97299 6.87667 2.85993 6.87667 3.74491 6.82858C4.1819 6.82858 4.37417 6.91165 4.3698 7.40567C4.32611 11.2704 4.30863 15.1352 4.28678 19L0.214023 18.9869ZM2.30721 0.00401549C2.59847 -0.0136707 2.89032 0.027189 3.16554 0.124184C3.44076 0.221178 3.69377 0.372343 3.90964 0.568757C4.12552 0.765171 4.29988 1.00286 4.42245 1.26778C4.54501 1.53271 4.61329 1.81952 4.62326 2.11128C4.65822 3.33542 3.61818 4.27538 2.24603 4.26226C1.95451 4.27721 1.66301 4.23225 1.38953 4.13014C1.11604 4.02804 0.86637 3.87096 0.655906 3.66859C0.445443 3.46622 0.278654 3.22286 0.165828 2.95352C0.0530018 2.68417 -0.00346939 2.39456 -0.000101933 2.10254C-0.000101933 0.878399 0.974387 0.00401549 2.30721 0.00401549Z" fill="white"/>
</svg>
