<svg width="124" height="124" viewBox="0 0 124 124" fill="none" xmlns="http://www.w3.org/2000/svg">
    <path d="M77.5 44.5601C77.2432 44.5565 76.9883 44.6039 76.7501 44.6997C76.5119 44.7954 76.295 44.9376 76.1122 45.1178C75.9293 45.2981 75.7841 45.5129 75.685 45.7498C75.5859 45.9867 75.5349 46.2409 75.5349 46.4976C75.5349 46.7544 75.5859 47.0086 75.685 47.2455C75.7841 47.4824 75.9293 47.6972 76.1122 47.8774C76.295 48.0577 76.5119 48.1998 76.7501 48.2956C76.9883 48.3913 77.2432 48.4388 77.5 48.4351H79.4375V50.8267C79.4368 51.2662 79.5855 51.6929 79.8591 52.0367C80.1328 52.3805 80.5152 52.6209 80.9436 52.7188C82.6427 53.1063 84.266 53.7752 85.7419 54.7017C86.1135 54.9347 86.5531 55.0348 86.9889 54.9855C87.4247 54.9363 87.8309 54.7403 88.1411 54.4302L89.8288 52.7429L92.5686 55.4827L90.8884 57.1629C90.5782 57.4729 90.3824 57.8789 90.3329 58.3147C90.2834 58.7504 90.3832 59.1899 90.616 59.5616C91.5385 61.041 92.2014 62.6672 92.5837 64.3679C92.6817 64.7963 92.9223 65.1785 93.2661 65.4521C93.6099 65.7257 94.0364 65.8743 94.4758 65.8736H96.875V69.7486H94.4834C94.0429 69.7483 93.6154 69.8981 93.2715 70.1733C92.9275 70.4486 92.6876 70.8329 92.5913 71.2627C92.2042 72.9615 91.5349 74.5775 90.6084 76.0535C90.3756 76.4252 90.2758 76.8646 90.3253 77.3004C90.3748 77.7361 90.5706 78.1422 90.8808 78.4522L92.5686 80.1404L89.8288 82.8797L88.1487 81.1995C87.8385 80.8894 87.4323 80.6939 86.9965 80.6446C86.5607 80.5954 86.1211 80.6955 85.7495 80.9285C84.2709 81.8507 82.6517 82.5213 80.9512 82.9038C80.523 82.9998 80.1402 83.2383 79.8652 83.5802C79.5902 83.9221 79.4394 84.3472 79.4375 84.786V87.1851H77.5C77.2432 87.1815 76.9883 87.2289 76.7501 87.3247C76.5119 87.4204 76.295 87.5625 76.1122 87.7428C75.9293 87.9231 75.7841 88.1379 75.685 88.3748C75.5859 88.6116 75.5349 88.8659 75.5349 89.1226C75.5349 89.3794 75.5859 89.6336 75.685 89.8705C75.7841 90.1073 75.9293 90.3222 76.1122 90.5024C76.295 90.6827 76.5119 90.8248 76.7501 90.9206C76.9883 91.0163 77.2432 91.0638 77.5 91.0601H81.375C81.8888 91.0601 82.3816 90.8558 82.7449 90.4925C83.1083 90.1292 83.3124 89.6365 83.3125 89.1226V86.0574C84.3447 85.7319 85.3387 85.325 86.302 84.8314L88.459 86.9883C88.8223 87.3516 89.3151 87.5555 89.8288 87.5555C90.3426 87.5555 90.8354 87.3516 91.1987 86.9883L96.6782 81.5164C96.8591 81.3364 97.0027 81.1221 97.1007 80.8864C97.1987 80.6507 97.2491 80.398 97.2491 80.1428C97.2491 79.8875 97.1987 79.6349 97.1007 79.3992C97.0027 79.1635 96.8591 78.9492 96.6782 78.7691L94.5212 76.6121C95.0169 75.6507 95.4264 74.6534 95.7549 73.6226H98.8125C99.3263 73.6226 99.8191 73.4183 100.182 73.055C100.546 72.6917 100.75 72.199 100.75 71.6851V63.9351C100.75 63.4213 100.546 62.9286 100.182 62.5653C99.8191 62.2019 99.3263 61.9977 98.8125 61.9976H95.7473C95.4213 60.9661 95.0146 59.9711 94.5212 59.0081L96.6782 56.8511C97.0414 56.4878 97.2454 55.995 97.2454 55.4813C97.2454 54.9675 97.0414 54.4748 96.6782 54.1114L91.1987 48.6319C90.8354 48.2687 90.3426 48.0648 89.8288 48.0648C89.3151 48.0648 88.8223 48.2687 88.459 48.6319L86.2944 50.7965C85.3338 50.3012 84.3421 49.891 83.3125 49.5628V46.4976C83.3124 45.9838 83.1083 45.4911 82.7449 45.1278C82.3816 44.7644 81.8888 44.5602 81.375 44.5601H77.5Z"
          fill="#F5B241"/>
    <path d="M77.5 58.1225C77.2432 58.1189 76.9883 58.1663 76.7501 58.262C76.5119 58.3578 76.295 58.4999 76.1122 58.6802C75.9293 58.8605 75.7841 59.0753 75.685 59.3122C75.5859 59.549 75.5349 59.8032 75.5349 60.06C75.5349 60.3168 75.5859 60.571 75.685 60.8079C75.7841 61.0447 75.9293 61.2595 76.1122 61.4398C76.295 61.6201 76.5119 61.7622 76.7501 61.858C76.9883 61.9537 77.2432 62.0011 77.5 61.9975C80.6972 61.9975 83.3125 64.6127 83.3125 67.81C83.3125 71.0081 80.6974 73.6225 77.5 73.6225C77.2432 73.6189 76.9883 73.6663 76.7501 73.7621C76.5119 73.8578 76.295 73.9999 76.1122 74.1802C75.9293 74.3605 75.7841 74.5753 75.685 74.8122C75.5859 75.049 75.5349 75.3033 75.5349 75.56C75.5349 75.8168 75.5859 76.071 75.685 76.3079C75.7841 76.5447 75.9293 76.7596 76.1122 76.9398C76.295 77.1201 76.5119 77.2622 76.7501 77.358C76.9883 77.4537 77.2432 77.5011 77.5 77.4975C82.8168 77.4975 87.1875 73.1273 87.1875 67.81C87.1875 62.4931 82.8169 58.1225 77.5 58.1225Z"
          fill="#F5B241"/>
    <path fill-rule="evenodd" clip-rule="evenodd" d="M33 15.4973V19.3723H48.5V15.4973H33Z" fill="white"/>
    <path d="M41.288 100.372C38.8942 100.372 36.9067 102.132 36.9067 104.25C36.9067 106.369 38.8942 108.128 41.288 108.128C43.6818 108.128 45.6693 106.369 45.6693 104.25C45.6693 102.132 43.6818 100.372 41.288 100.372ZM17.1907 22.816C16.6097 22.8161 16.0525 23.0205 15.6417 23.3841C15.2309 23.7477 15.0001 24.2407 15 24.7549V94.5557C15.0001 95.0699 15.2309 95.5629 15.6417 95.9266C16.0525 96.2902 16.6097 96.4945 17.1907 96.4946H65.3853C65.9663 96.4945 66.5235 96.2902 66.9343 95.9266C67.3451 95.5629 67.5759 95.0699 67.576 94.5557V24.7549C67.5759 24.2407 67.3451 23.7477 66.9343 23.3841C66.5235 23.0205 65.9663 22.8161 65.3853 22.816H17.1907ZM19.3813 26.6939H63.1947V92.6168H19.3813V26.6939Z"
          fill="white"/>
    <path d="M39.9573 55C39.9547 55 39.9531 55 39.9505 55C39.8274 55.0005 39.739 55.105 39.6188 55.1246L39.6085 55.0694H39.6017C39.5184 55.1057 39.4411 55.1547 39.3726 55.2151C38.4873 55.4655 37.7214 56.0955 37.7214 57.1386V61.6698H36.9487C35.8124 61.677 35 62.7133 35 63.8228V63.9367V63.9543C35 63.9602 35 63.9662 35 63.9721C35.0499 66.4771 36.3731 68.7804 38.4941 70.038C40.6597 71.3207 43.3368 71.3207 45.5026 70.038C47.664 68.7577 48.9952 66.3939 49 63.8402V62.5694C49 61.4599 48.1876 60.4235 47.0513 60.4235H42.1863V57.1528C42.1863 56.1108 41.4146 55.4828 40.5419 55.2292C40.3816 55.0821 40.1733 55.0005 39.9573 55ZM39.9505 56.7812C40.1954 56.7812 40.4359 56.9711 40.4359 57.1528V61.3124C40.436 61.5482 40.5282 61.7742 40.6923 61.9409C40.8564 62.1076 41.079 62.2013 41.3111 62.2013H47.0513C47.1032 62.2013 47.2496 62.2867 47.2496 62.5694V63.8402C47.2449 65.7678 46.2415 67.5431 44.6205 68.5033C42.9952 69.466 41.0012 69.4658 39.3761 68.5033C37.7847 67.5597 36.7881 65.8302 36.7505 63.9374V63.8237C36.7505 63.5405 36.8969 63.4554 36.9488 63.4554H38.5966C38.8287 63.4554 39.0513 63.3617 39.2155 63.195C39.3796 63.0283 39.4718 62.8023 39.4718 62.5665V57.1465C39.4718 57.0398 39.7471 56.7883 39.9505 56.7819V56.7812Z"
          fill="#F5B241"/>
    <path d="M79.3391 42.6224L82.0486 42.7657L84.5083 43.1375L86.5972 43.6753L87.5659 39.9214L85.3862 39.3609L85.197 39.3221L82.5027 38.9134L82.3059 38.8746L79.5359 38.7393L79.3391 42.6224ZM89.8591 44.908L91.4409 45.6724L93.4919 46.9136L95.4976 48.4122L95.5278 48.451L95.8911 48.792L98.4946 45.9236L97.9951 45.4619L97.8513 45.3493L95.7624 43.7907L95.611 43.6857L93.3708 42.3234L93.2043 42.2345L91.5468 41.4398L89.8591 44.908ZM98.4946 51.379L98.8957 51.8255L98.9337 51.8643L100.304 53.711L101.583 55.8074L102.355 57.4114L105.851 55.7312L105.034 54.044L104.943 53.877L103.588 51.6448L103.482 51.4859L101.923 49.3975L101.802 49.2617L101.363 48.7773L98.4946 51.379ZM103.581 60.6805L104.11 62.7466L104.496 65.282L104.625 67.9083L106.26 67.8231L108.492 67.9352L108.5 67.8964V67.7068L108.356 64.9292L108.341 64.7314L107.925 62.0451L107.887 61.8474L107.335 59.698L103.581 60.6805ZM104.11 72.8807L103.497 75.2723L102.65 77.6109L102.332 78.2618L105.821 79.9495L106.177 79.2154L106.252 79.0333L107.16 76.5433L107.221 76.3612L107.887 73.7577L107.925 73.5675L108.167 71.9933L104.338 71.403L104.11 72.8807ZM100.311 81.9173L98.9336 83.764L98.8956 83.8028L97.3138 85.5586L97.2836 85.5974L95.8456 86.8992L98.4567 89.7676L99.9174 88.4351L100.054 88.3074L101.802 86.3774L101.923 86.2421L103.482 84.1533L103.588 83.9943L103.876 83.5175L100.568 81.5043L100.311 81.9173ZM91.4409 89.9549L89.2537 91.0145L86.9604 91.8545L86.5442 91.9671L87.5129 95.7135L87.9897 95.5933L88.1714 95.5389L90.6614 94.6227L90.8354 94.5494L93.2043 93.4141L93.3708 93.3214L95.0586 92.2921L93.0454 88.9847L91.4409 89.9549ZM82.041 92.8687L79.3391 93.0045L79.5359 96.8714L82.3059 96.7357L82.5027 96.6969L83.532 96.5384L82.9492 92.7084L82.041 92.8687ZM95.6641 15.3914L97.5938 15.5816L98.4265 15.6629L99.9099 16.1241L100.531 16.4652L102.233 17.3885L104.088 13.983L102.385 13.0594L101.567 12.6205L101.218 12.4771L99.4023 11.9095L99.0225 11.8357L97.9782 11.7312L96.0481 11.5334L95.6641 15.3914ZM89.3823 14.4227L88.7921 14.907L88.5286 15.1629L87.3479 16.6009L87.1425 16.9108L86.5446 18.0082L85.6212 19.7111L89.0192 21.5577L89.9504 19.8549L90.465 18.9164L91.3806 17.7963L91.8499 17.4089L93.341 16.1752L90.8738 13.1855L89.3823 14.4227ZM103.74 19.3648L104.307 21.2115L104.451 21.6656L104.609 23.2549L104.451 24.8443L104.004 26.2671L103.171 27.8111L106.577 29.6578L107.501 27.9549L107.652 27.6063L108.212 25.7823L108.297 25.4025L108.336 25.0226C108.584 22.364 108.456 22.5007 108.336 21.4792L108.297 21.1069L108.212 20.7276L108.006 20.0616L107.431 18.2149L103.74 19.3648ZM85.3484 25.1697L85.9235 27.024L86.0978 27.5992L86.249 27.9478L87.1422 29.5901L87.3475 29.9004L88.2407 30.9827L89.4741 32.4737L92.4637 30.0064L91.2299 28.5154L90.4657 27.5845L89.7392 26.2601L89.6268 25.8726L89.0514 24.0179L85.3484 25.1697ZM99.7886 30.4146L98.4339 30.8384L96.875 30.9893H96.7704L94.8402 30.7921L94.4469 34.6444L96.3767 34.8421L96.6789 34.8809H97.0726L99.0252 34.6832L99.405 34.6056L100.941 34.1288L102.788 33.5536L101.638 29.8527L99.7886 30.4146Z"
          fill="white"/>
    <path d="M38.7314 51.0669C36.6281 51.4364 35.0593 53.2675 35.0016 55.4333C34.944 57.5992 36.4151 59.5166 38.4958 60L38.8966 58.2155C37.6364 57.9228 36.7669 56.7841 36.8015 55.4834C36.8361 54.1829 37.7632 53.0966 39.0372 52.8728C40.3113 52.6489 41.5518 53.3579 42.0182 54.5715C42.4845 55.785 42.0474 57.1462 40.9601 57.8508L41.9268 59.3956C43.7259 58.2299 44.4706 55.9248 43.695 53.9063C42.9193 51.8879 40.8347 50.6974 38.7314 51.0669Z"
          fill="#F5B241"/>
    <rect x="10" y="9" width="64" height="103" rx="8" stroke="white" stroke-width="4"/>
</svg>
