<svg width="124" height="124" viewBox="0 0 124 124" fill="none" xmlns="http://www.w3.org/2000/svg">
    <path d="M107.077 89.6791C106.598 89.7042 106.145 89.9065 105.806 90.2467L91.9708 104.089C91.7371 104.323 91.5671 104.612 91.4768 104.93C91.3864 105.248 91.3787 105.583 91.4545 105.905C91.5304 106.226 91.6872 106.523 91.9101 106.767C92.1329 107.011 92.4143 107.194 92.7277 107.298L113.488 114.216C113.829 114.33 114.196 114.347 114.547 114.264C114.897 114.181 115.218 114.003 115.472 113.748C115.727 113.493 115.906 113.173 115.988 112.822C116.071 112.472 116.054 112.105 115.94 111.764L109.015 91.0035C108.881 90.6012 108.619 90.2538 108.269 90.0146C107.919 89.7754 107.501 89.6575 107.077 89.6791ZM106.336 95.1964L111.036 109.311L96.9281 104.611L106.336 95.1964ZM24.1356 9.68909C21.7583 9.68915 19.3868 10.5931 17.5814 12.3986L14.1151 15.8573C10.5048 19.4682 10.5044 25.3627 14.1151 28.9733L19.307 34.1652C19.6704 34.5285 20.1631 34.7325 20.6769 34.7325C21.1907 34.7325 21.6836 34.5285 22.047 34.1652L35.8893 20.3302C36.2525 19.9668 36.4564 19.4741 36.4564 18.9603C36.4564 18.4466 36.2525 17.9538 35.8893 17.5905L30.6974 12.3986C28.892 10.5933 26.5129 9.68902 24.1356 9.68909ZM24.1356 13.5338C25.5105 13.5338 26.8875 14.0683 27.9574 15.1383L31.7797 18.9603L20.6767 30.0555L16.8549 26.2335C14.7151 24.0936 14.7147 20.7374 16.8549 18.597L20.3209 15.1383C21.3912 14.0682 22.7608 13.5338 24.1356 13.5338Z"
          fill="white"/>
    <path fill-rule="evenodd" clip-rule="evenodd"
          d="M15.6057 105.785L7.96191 113.512L10.7168 116.236L18.3608 108.517L15.6057 105.785Z" fill="white"/>
    <path d="M34.489 17.0228C33.9857 17.0308 33.5053 17.2344 33.1494 17.5904L19.3069 31.4254C18.9437 31.7888 18.7395 32.2815 18.7395 32.7953C18.7395 33.309 18.9437 33.8018 19.3069 34.1651L48.6873 63.5455C48.8658 63.7315 49.0795 63.8799 49.3161 63.9822C49.5528 64.0845 49.8076 64.1385 50.0654 64.1412C50.3232 64.1438 50.5789 64.095 50.8175 63.9975C51.0562 63.9001 51.2729 63.756 51.4552 63.5737C51.6374 63.3914 51.7815 63.1746 51.879 62.936C51.9764 62.6973 52.0252 62.4416 52.0225 62.1838C52.0199 61.926 51.9659 61.6714 51.8636 61.4348C51.7613 61.1981 51.613 60.9843 51.427 60.8058L23.4167 32.7953L34.5193 21.7001L63.8088 50.9896C63.9874 51.1756 64.2013 51.324 64.438 51.4263C64.6746 51.5286 64.9292 51.5826 65.187 51.5853C65.4448 51.5879 65.7004 51.539 65.9391 51.4416C66.1778 51.3442 66.3945 51.2001 66.5767 51.0178C66.759 50.8355 66.9031 50.6187 67.0006 50.38C67.098 50.1414 67.147 49.8857 67.1444 49.6279C67.1417 49.3701 67.0875 49.1155 66.9852 48.8789C66.8829 48.6422 66.7346 48.4284 66.5486 48.2499L35.8892 17.5904C35.7057 17.4069 35.4871 17.2621 35.2466 17.1646C35.0061 17.067 34.7485 17.0188 34.489 17.0228ZM75.8198 58.3233C75.4355 58.325 75.0604 58.4408 74.7421 58.6562C74.4237 58.8716 74.1767 59.1768 74.0323 59.5329C73.8879 59.8891 73.8526 60.2801 73.9311 60.6564C74.0095 61.0326 74.198 61.377 74.4727 61.6459L104.436 91.6166L93.3406 102.719L63.2866 72.6654C63.1081 72.4794 62.8944 72.3309 62.6577 72.2287C62.4211 72.1264 62.1662 72.0724 61.9085 72.0697C61.6507 72.0671 61.395 72.1159 61.1564 72.2134C60.9177 72.3108 60.701 72.4549 60.5187 72.6372C60.3365 72.8195 60.1923 73.0363 60.0949 73.2749C59.9975 73.5136 59.9487 73.7693 59.9513 74.0271C59.954 74.2848 60.008 74.5395 60.1103 74.7761C60.2126 75.0128 60.3609 75.2266 60.5469 75.4051L91.9707 106.829C92.3341 107.192 92.8268 107.396 93.3406 107.396C93.8544 107.396 94.3471 107.192 94.7105 106.829L108.545 92.9864C108.909 92.6231 109.113 92.1303 109.113 91.6166C109.113 91.1028 108.909 90.6101 108.545 90.2467L77.2124 58.9061C77.0311 58.7207 76.8144 58.5736 76.5752 58.4735C76.336 58.3734 76.0791 58.3224 75.8198 58.3233Z"
          fill="#F5B241"/>
    <path fill-rule="evenodd" clip-rule="evenodd"
          d="M28.0938 23.2667L25.3391 25.9989L55.741 56.5978L58.4883 53.8656L28.0938 23.2667ZM69.2883 64.7413L66.541 67.4735L98.0027 99.1395L100.75 96.4073L69.2883 64.7413Z"
          fill="#F5B241"/>
    <path d="M103.278 7.75916C102.772 7.76523 102.288 7.96895 101.931 8.32679L94.8164 15.441L63.9375 46.32L18.096 92.1539C17.7327 92.5173 17.5286 93.01 17.5286 93.5238C17.5286 94.0376 17.7327 94.5303 18.096 94.8937L28.4495 105.255C28.8128 105.618 29.3056 105.822 29.8193 105.822C30.3331 105.822 30.8259 105.618 31.1892 105.255L77.0308 59.4208L108.008 28.4435L115.032 21.42C115.395 21.0567 115.599 20.5639 115.599 20.0502C115.599 19.5364 115.395 19.0437 115.032 18.6803L104.67 8.32679C104.488 8.14415 104.271 7.99985 104.031 7.90237C103.792 7.80489 103.536 7.7562 103.278 7.75916ZM103.301 12.4364L110.922 20.0502L105.269 25.7037L74.2915 56.681L29.8198 101.145L22.2063 93.5238L66.6777 49.0597L97.5566 18.1808L103.301 12.4364Z"
          fill="#F5B241"/>
    <path d="M23.1402 95.0463C22.7768 94.6829 22.284 94.4788 21.7701 94.4788C21.2562 94.4788 20.7634 94.6829 20.4 95.0463L13.4695 101.976C13.1062 102.34 12.9021 102.833 12.9021 103.346C12.9021 103.86 13.1062 104.353 13.4695 104.716L19.5062 110.753C19.8696 111.116 20.3625 111.32 20.8763 111.32C21.3901 111.32 21.883 111.116 22.2464 110.753L29.1767 103.823C29.54 103.459 29.7441 102.967 29.7441 102.453C29.7441 101.939 29.54 101.446 29.1767 101.083L23.1402 95.0463ZM21.7701 99.1562L25.0668 102.453L20.8761 106.643L17.5796 103.346L21.7701 99.1562ZM97.4608 15.5397C97.0974 15.1764 96.6045 14.9723 96.0907 14.9723C95.5768 14.9723 95.0839 15.1764 94.7206 15.5397L62.8237 47.4344C62.4604 47.7977 62.2563 48.2905 62.2563 48.8043C62.2563 49.3181 62.4604 49.8109 62.8237 50.1743L73.2118 60.5615C73.5751 60.9248 74.068 61.1289 74.5819 61.1289C75.0957 61.1289 75.5883 60.9248 75.9517 60.5615L107.849 28.6668C108.212 28.3034 108.416 27.8107 108.416 27.2968C108.416 26.783 108.212 26.2902 107.849 25.9269L97.4608 15.5397ZM96.0907 19.6496L103.738 27.2968L74.5819 56.4516L66.934 48.8043L96.0907 19.6496Z"
          fill="#F5B241"/>
    <path fill-rule="evenodd" clip-rule="evenodd"
          d="M82.3362 15.1005C81.834 15.1065 81.3537 15.3073 80.9966 15.6605L61.1524 35.5123C60.9664 35.6908 60.8181 35.9047 60.7158 36.1413C60.6135 36.3779 60.5595 36.6326 60.5569 36.8904C60.5542 37.1481 60.603 37.4038 60.7004 37.6425C60.7979 37.8811 60.942 38.098 61.1243 38.2802C61.3065 38.4625 61.5232 38.6066 61.7619 38.704C62.0005 38.8015 62.2562 38.8503 62.514 38.8477C62.7718 38.8451 63.0266 38.791 63.2633 38.6888C63.4999 38.5865 63.7136 38.438 63.8921 38.2521L82.3665 19.7701L86.688 24.0917L97.6243 35.0355C97.8029 35.2215 98.0166 35.3699 98.2532 35.4722C98.4898 35.5745 98.7447 35.6285 99.0025 35.6311C99.2602 35.6337 99.5159 35.5849 99.7546 35.4875C99.9932 35.39 100.21 35.246 100.392 35.0637C100.574 34.8814 100.719 34.6646 100.816 34.4259C100.913 34.1873 100.962 33.9316 100.96 33.6738C100.957 33.416 100.903 33.1614 100.801 32.9248C100.698 32.6881 100.55 32.4743 100.364 32.2958L89.4278 21.3519L83.7364 15.6605C83.5523 15.4783 83.3336 15.3349 83.0931 15.2387C82.8526 15.1425 82.5952 15.0955 82.3362 15.1005Z"
          fill="#F5B241"/>
</svg>
