<svg width="32" height="32" viewBox="0 0 32 32" fill="none" xmlns="http://www.w3.org/2000/svg">
    <path d="M7.125 25.125C9.25 14.9375 14.9375 7.5 27.1875 7.125V8.0625C19.625 10.125 15.9375 15.4375 17.25 25.125H7.125Z"
          fill="white"/>
    <path d="M18.125 22.4375L17.875 24.125L19.75 24.9375L19.8125 23.25L18.125 22.4375ZM6.5 17.6875L5.6875 19.9375L7.8125 20.5625L8.625 18.375L6.5 17.6875ZM10.875 10.9375L9.3125 12.625L11.25 14.0625L12.8125 12.1875L10.875 10.9375ZM16.625 6.8125L14.9375 8L16.25 9.5L18 8.375L16.625 6.8125ZM21.3125 6.1875L21.6875 7.3125L23.4375 6.875L23.0625 5.875L21.3125 6.1875ZM23.4375 10.5625L24.25 11.8125L25.25 10.875L24.8125 9.875L23.4375 10.5625ZM21 12.25L19.9375 13.375L21.375 15.0625L22.125 13.875L21 12.25ZM18.6875 17.125L18.1875 18.6875L20.125 19.8125L20.1875 18.125L18.6875 17.125Z"
          fill="white"/>
</svg>
