<svg width="124" height="124" viewBox="0 0 124 124" fill="none" xmlns="http://www.w3.org/2000/svg">
    <g clip-path="url(#clip0_412_416)">
        <path d="M56.2859 100.649C56.0037 100.66 55.7273 100.733 55.4761 100.862L35.9422 110.716C35.6207 110.878 35.3505 111.125 35.162 111.432C34.9735 111.738 34.8741 112.091 34.8749 112.451C34.8757 112.811 34.9766 113.164 35.1665 113.47C35.3563 113.775 35.6275 114.022 35.9497 114.182L55.5594 123.9C55.8552 124.047 56.1837 124.116 56.5138 124.1C56.8438 124.085 57.1643 123.985 57.4449 123.81C57.7255 123.636 57.9568 123.393 58.1169 123.104C58.277 122.815 58.3606 122.49 58.3596 122.159L58.284 102.58C58.2831 102.321 58.2303 102.065 58.1287 101.827C58.0271 101.589 57.8788 101.373 57.6926 101.193C57.5063 101.013 57.2858 100.872 57.0442 100.779C56.8026 100.686 56.5448 100.642 56.2859 100.65L56.2859 100.649ZM54.4241 105.735L54.4695 119.032L41.1492 112.425L54.4241 105.735H54.4241ZM110.771 100.634L103.823 100.673C103.566 100.67 103.312 100.719 103.074 100.815C102.836 100.912 102.62 101.055 102.438 101.236C102.256 101.417 102.112 101.632 102.013 101.869C101.915 102.107 101.865 102.361 101.866 102.618C101.867 102.874 101.919 103.128 102.019 103.365C102.119 103.601 102.265 103.815 102.449 103.995C102.632 104.174 102.849 104.316 103.088 104.41C103.326 104.505 103.581 104.552 103.838 104.548L110.793 104.509C113.754 104.509 116.212 106.88 116.212 109.882L116.25 114.794C116.257 117.817 113.891 120.177 110.854 120.206L103.914 120.244C103.657 120.243 103.403 120.292 103.165 120.389C102.928 120.486 102.712 120.63 102.531 120.811C102.349 120.992 102.206 121.208 102.108 121.445C102.01 121.683 101.961 121.937 101.963 122.193C101.964 122.45 102.016 122.704 102.117 122.94C102.217 123.176 102.363 123.39 102.547 123.569C102.731 123.748 102.948 123.889 103.187 123.984C103.425 124.078 103.68 124.124 103.936 124.119L110.884 124.081C110.887 124.081 110.889 124.081 110.892 124.081C115.984 124.03 120.144 119.878 120.125 114.771L120.087 109.89C120.087 104.76 115.845 100.613 110.771 100.641L110.771 100.634Z"
              fill="white"/>
        <path fill-rule="evenodd" clip-rule="evenodd"
              d="M57.5573 110.352L57.5422 114.227L106.396 114.354L106.404 110.479L57.5576 110.352H57.5573Z"
              fill="#F5B241"/>
        <path d="M5.8125 -0.00269789C5.29866 -0.00264654 4.80588 0.201352 4.44254 0.564693C4.0792 0.928033 3.87505 1.42096 3.875 1.9348V83.2568C3.87505 83.7707 4.0792 84.2638 4.44254 84.6272C4.80588 84.9905 5.29866 85.1943 5.8125 85.1943H14.5691L16.5898 85.2331L31.5374 100.181C31.8083 100.451 32.1535 100.636 32.5293 100.71C32.9051 100.785 33.2945 100.747 33.6485 100.6C34.0024 100.454 34.305 100.205 34.5179 99.8869C34.7308 99.5684 34.8446 99.1939 34.8447 98.8107V85.2482L48.4526 85.1943H61.0312H75.5625C76.0763 85.1943 76.5691 84.99 76.9325 84.6267C77.2958 84.2634 77.4999 83.7707 77.5 83.2568V72.6379V67.9077V29.0291V21.3093C77.5036 21.0526 77.4562 20.7978 77.3605 20.5596C77.2647 20.3213 77.1226 20.1043 76.9423 19.9215C76.762 19.7386 76.5472 19.5934 76.3103 19.4943C76.0735 19.3952 75.8193 19.3444 75.5625 19.3444C75.3057 19.3444 75.0515 19.3952 74.8147 19.4943C74.5778 19.5934 74.363 19.7386 74.1827 19.9215C74.0024 20.1043 73.8603 20.3213 73.7645 20.5596C73.6688 20.7978 73.6214 21.0526 73.625 21.3093V29.0291V67.9077V72.6379V81.3193H61.0312H48.4451C48.4425 81.3193 48.4399 81.3193 48.4373 81.3193L32.8995 81.3813C32.3872 81.3913 31.8997 81.6035 31.5438 81.9721C31.1878 82.3406 30.9923 82.8353 31 83.3476L30.9697 83.3089V94.124L18.7771 81.939C18.425 81.5865 17.9507 81.3833 17.4526 81.3714L14.6372 81.3094C14.6221 81.3092 14.6069 81.3092 14.5918 81.3094H7.75001V3.86213H56.1875C56.4442 3.86576 56.6992 3.81833 56.9374 3.72259C57.1757 3.62685 57.3925 3.48471 57.5753 3.30444C57.7582 3.12417 57.9034 2.90935 58.0025 2.67248C58.1016 2.43561 58.1526 2.1814 58.1526 1.92463C58.1526 1.66787 58.1016 1.41366 58.0025 1.17678C57.9034 0.939911 57.7582 0.725099 57.5753 0.544826C57.3925 0.364552 57.1757 0.222413 56.9374 0.126674C56.6992 0.0309341 56.4442 -0.0164977 56.1875 -0.0128679H5.81251L5.8125 -0.00269789Z"
              fill="white"/>
        <path fill-rule="evenodd" clip-rule="evenodd"
              d="M63.9072 -0.002703C63.3987 0.00529405 62.9136 0.212847 62.5568 0.57533C62.2 0.937814 62 1.42616 62 1.9348V13.5598C62.0001 14.0736 62.2042 14.5663 62.5675 14.9297C62.9309 15.293 63.4237 15.4972 63.9375 15.4973H75.5625C75.9456 15.4971 76.3201 15.3833 76.6386 15.1704C76.9571 14.9575 77.2053 14.655 77.3519 14.301C77.4985 13.9471 77.5369 13.5576 77.4622 13.1819C77.3875 12.8061 77.2032 12.4609 76.9324 12.1899L65.3074 0.564924C65.1239 0.381354 64.9054 0.236485 64.6649 0.138967C64.4244 0.0414494 64.1667 -0.00666942 63.9072 -0.002703ZM65.875 6.61228L70.8853 11.6223H65.875V6.61228Z"
              fill="white"/>
        <path fill-rule="evenodd" clip-rule="evenodd"
              d="M15.5 11.6223V15.4973H50.375V11.6223H15.5ZM15.5 23.2473V27.1223H65.875V23.2473H15.5ZM15.5 34.8723V38.7473H65.875V34.8723H15.5ZM15.5 46.52V50.395H65.875V46.52H15.5ZM15.5 58.145V62.02H65.875V58.145H15.5ZM15.5 69.77V73.645H34.875V69.77H15.5Z"
              fill="#F5B241"/>
        <path d="M104.852 100.445L56.3465 100.65C55.8326 100.652 55.3406 100.858 54.9786 101.223C54.6167 101.588 54.4145 102.082 54.4165 102.595L54.4922 122.167C54.4943 122.681 54.7004 123.173 55.0651 123.535C55.4299 123.897 55.9235 124.099 56.4373 124.097L104.935 123.891C105.449 123.889 105.941 123.683 106.303 123.319C106.665 122.954 106.867 122.46 106.865 121.946L106.797 102.375C106.795 101.861 106.589 101.368 106.224 101.007C105.859 100.645 105.366 100.443 104.852 100.445H104.852ZM102.93 104.327L102.983 120.024L58.3596 120.214L58.2991 104.517L102.93 104.327H102.93Z"
              fill="white"/>
    </g>
    <defs>
        <clipPath id="clip0_412_416">
            <rect width="124" height="124" fill="white"/>
        </clipPath>
    </defs>
</svg>
