<svg width="367" height="258" viewBox="0 0 367 258" fill="none" xmlns="http://www.w3.org/2000/svg">
    <path d="M104.978 215.792C100.49 215.798 96.1574 214.152 92.8039 211.168L0 128.599L97.9623 41.4379C101.598 38.2048 106.369 36.5499 111.224 36.8371C116.079 37.1244 120.622 39.3303 123.852 42.9696C127.082 46.6089 128.736 51.3835 128.449 56.243C128.162 61.1025 125.958 65.6489 122.322 68.8819L55.2167 128.599L117.174 183.703C119.952 186.177 121.914 189.438 122.8 193.053C123.685 196.668 123.452 200.467 122.132 203.946C120.812 207.426 118.467 210.422 115.408 212.538C112.348 214.654 108.719 215.789 105 215.794L104.978 215.792ZM269.034 215.758L366.996 128.597L274.194 46.0278C270.546 42.8807 265.807 41.2964 261.002 41.6171C256.196 41.9379 251.71 44.138 248.511 47.7422C245.313 51.3463 243.66 56.0651 243.909 60.879C244.158 65.693 246.289 70.2156 249.843 73.4698L311.799 128.597L244.688 188.291C241.084 191.532 238.907 196.069 238.634 200.91C238.36 205.752 240.011 210.505 243.226 214.133C246.442 217.76 250.961 219.967 255.796 220.272C260.632 220.576 265.391 218.953 269.036 215.758H269.034ZM183.247 241.766L219.928 21.4851C220.341 19.1014 220.279 16.6594 219.746 14.2998C219.212 11.9401 218.218 9.70933 216.82 7.7358C215.422 5.76227 213.647 4.08495 211.599 2.80036C209.551 1.51576 207.269 0.649257 204.885 0.250704C202.5 -0.14785 200.061 -0.0705844 197.707 0.478055C195.353 1.02669 193.13 2.03588 191.167 3.44753C189.204 4.85918 187.539 6.64543 186.268 8.70349C184.998 10.7616 184.146 13.0508 183.763 15.4395L147.08 235.721C146.683 238.099 146.757 240.532 147.3 242.882C147.843 245.231 148.842 247.451 150.242 249.413C151.642 251.376 153.415 253.043 155.459 254.32C157.503 255.596 159.778 256.457 162.155 256.854C163.158 257.013 164.173 257.094 165.189 257.095C169.524 257.089 173.718 255.546 177.025 252.74C180.332 249.934 182.539 246.046 183.255 241.766H183.247Z"
          fill="url(#paint0_linear_412_295)" fill-opacity="0.15"/>
    <defs>
        <linearGradient id="paint0_linear_412_295" x1="140" y1="-9.95007e-06" x2="176.5" y2="293"
                        gradientUnits="userSpaceOnUse">
            <stop stop-color="white"/>
            <stop offset="1" stop-opacity="0"/>
        </linearGradient>
    </defs>
</svg>
