<svg width="36" height="36" viewBox="0 0 36 36" fill="none" xmlns="http://www.w3.org/2000/svg">
<path d="M32.445 2.36629L1.36209 15.6731C1.36209 15.6731 -0.107471 16.2225 0.00627849 17.2359C0.12309 18.2512 1.32227 18.7156 1.32227 18.7156L9.14343 21.5875C9.14343 21.5875 11.5042 30.0351 11.9688 31.6425C12.4334 33.2455 12.8062 33.2833 12.8062 33.2833C13.2388 33.4885 13.6322 33.1618 13.6322 33.1618L18.6853 28.1356L26.5607 34.7247C28.6908 35.7385 29.4661 33.6262 29.4661 33.6262L35 3.17045C35 1.14181 32.445 2.36629 32.445 2.36629ZM26.9422 31.1768L18.5168 24.1296L15.9023 26.7293L16.4772 21.1983L27.7078 10.25L12.3993 19.5985L5.60888 17.1054L31.5162 6.01361L26.9422 31.1768Z" fill="white"/>
</svg>
