<svg width="26" height="19" viewBox="0 0 26 19" fill="none" xmlns="http://www.w3.org/2000/svg">
    <g clip-path="url(#clip0_267_32)">
        <path d="M19.5922 2.13749C16.9121 2.13749 14.8316 3.87599 13.9872 6.74183C12.6994 4.80805 11.7198 2.48583 11.1509 0.528826H8.26289V8.02855C8.26078 9.51055 7.0585 10.7128 5.57439 10.7149C4.09028 10.7128 2.89011 9.50949 2.888 8.02855V0.527771H0V8.02749C0 11.1002 2.50272 13.6198 5.57544 13.6198C8.65028 13.6198 11.1519 11.1002 11.1519 8.02749V6.77244C11.7103 7.93988 12.3996 9.12422 13.2356 10.1703L11.4686 18.4722H14.421L15.7014 12.4503C16.8234 13.167 18.1133 13.6209 19.5922 13.6209C22.7588 13.6209 25.3333 11.0348 25.3333 7.87338C25.3333 4.70883 22.7588 2.13749 19.5922 2.13749ZM19.5922 10.7213C18.4289 10.7213 17.3386 10.2283 16.3474 9.4261L16.5881 8.29244L16.5965 8.2481C16.815 7.0416 17.4927 5.02022 19.5932 5.02022C21.1681 5.02022 22.4464 6.29849 22.4464 7.87021C22.4453 9.44194 21.1671 10.7213 19.5922 10.7213Z" fill="white"/>
        <path d="M12.6667 12.8408L11.4686 18.4722H12.6667V12.8408ZM11.1509 0.527771H8.26289V8.02749C8.26078 9.50949 7.0585 10.7118 5.57439 10.7139C4.09028 10.7118 2.89011 9.50844 2.888 8.02749V0.527771H0V8.02749C0 11.1002 2.50272 13.6198 5.57544 13.6198C8.65028 13.6198 11.1519 11.1002 11.1519 8.02749V6.77244C11.5784 7.66438 12.0808 8.56583 12.6677 9.40816V4.42699C12.0186 3.10649 11.5056 1.74694 11.1509 0.527771Z" fill="white"/>
    </g>
    <defs>
        <clipPath id="clip0_267_32">
            <rect width="25.3333" height="19" fill="white"/>
        </clipPath>
    </defs>
</svg>
