<svg width="124" height="124" viewBox="0 0 124 124" fill="none" xmlns="http://www.w3.org/2000/svg">
    <path d="M5.8125 34.8724C5.29866 34.8725 4.80588 35.0767 4.44254 35.4401C4.0792 35.8034 3.87505 36.2961 3.875 36.8099V102.685C3.87505 103.199 4.0792 103.691 4.44254 104.055C4.80588 104.418 5.29866 104.622 5.8125 104.622H102.688C103.201 104.622 103.694 104.418 104.057 104.055C104.421 103.691 104.625 103.199 104.625 102.685V69.7474V67.8099H100.75V69.7474V100.747H7.75V38.7474H63.3018H65.2393V34.8724H63.3018H5.8125Z"
          fill="white"/>
    <path fill-rule="evenodd" clip-rule="evenodd" d="M7.75 89.1224V92.9974H100.75V89.1224H7.75Z" fill="white"/>
    <path d="M40.6875 100.747C40.1737 100.747 39.6809 100.952 39.3175 101.315C38.9542 101.678 38.7501 102.171 38.75 102.685V118.185C38.7501 118.699 38.9542 119.191 39.3175 119.555C39.6809 119.918 40.1737 120.122 40.6875 120.122H67.8125C68.3263 120.122 68.8191 119.918 69.1825 119.555C69.5458 119.191 69.7499 118.699 69.75 118.185V102.685C69.7499 102.171 69.5458 101.678 69.1825 101.315C68.8191 100.952 68.3263 100.747 67.8125 100.747H40.6875ZM42.625 104.622H65.875V116.247H42.625V104.622Z"
          fill="white"/>
    <path fill-rule="evenodd" clip-rule="evenodd" d="M27.125 116.247V120.122H81.375V116.247H27.125Z" fill="white"/>
    <path fill-rule="evenodd" clip-rule="evenodd"
          d="M73.625 15.4974V19.3724H100.75V15.4974H73.625ZM73.625 27.1224V30.9974H108.5V27.1224H73.625ZM73.625 38.7474V42.6224H108.5V38.7474H73.625ZM73.625 50.3724V54.2474H108.5V50.3724H73.625Z"
          fill="#F5B241"/>
    <path d="M63.9375 3.87236C63.4237 3.87241 62.9309 4.07641 62.5675 4.43975C62.2042 4.80309 62.0001 5.29602 62 5.80986V63.844C62.0001 64.3579 62.2042 64.8506 62.5675 65.2139C62.9309 65.5773 63.4237 65.7815 63.9375 65.7815H70.749L72.1492 65.8203L83.6606 77.0518C83.9333 77.3183 84.2786 77.4985 84.6532 77.5697C85.0278 77.641 85.4151 77.5998 85.7665 77.452C86.118 77.3041 86.4181 77.0562 86.6291 76.7386C86.8401 76.421 86.9527 76.0481 86.9529 75.6668V65.8279L97.1021 65.7891H106.888H118.188C118.701 65.7891 119.194 65.5853 119.557 65.222C119.921 64.8586 120.125 64.3655 120.125 63.8516V59.4998V55.9129V26.3882V25.1924C120.129 24.9357 120.081 24.6809 119.985 24.4427C119.89 24.2044 119.748 23.9874 119.567 23.8046C119.387 23.6217 119.172 23.4765 118.935 23.3774C118.698 23.2783 118.444 23.2275 118.188 23.2275C117.931 23.2275 117.677 23.2783 117.44 23.3774C117.203 23.4765 116.988 23.6217 116.808 23.8046C116.627 23.9874 116.485 24.2044 116.39 24.4427C116.294 24.6809 116.246 24.9357 116.25 25.1924V26.3882V55.9129V59.4998V61.9141H106.888H97.0945C97.0919 61.9141 97.0893 61.9141 97.0867 61.9141L85.0076 61.9609C84.4951 61.969 84.0066 62.1796 83.6491 62.547C83.2916 62.9144 83.0943 63.4086 83.1004 63.9211L83.0775 63.8824V71.0496L74.3134 62.4973C73.9608 62.1522 73.4898 61.9547 72.9965 61.9449L70.8092 61.8985C70.7941 61.8983 70.779 61.8983 70.7638 61.8985H65.8747V7.73909H98.8122C99.0689 7.74271 99.3238 7.69528 99.562 7.59954C99.8003 7.5038 100.017 7.36167 100.2 7.18139C100.383 7.00112 100.528 6.78631 100.627 6.54943C100.726 6.31256 100.777 6.05835 100.777 5.80159C100.777 5.54482 100.726 5.29061 100.627 5.05374C100.528 4.81686 100.383 4.60205 100.2 4.42178C100.017 4.24151 99.8003 4.09937 99.562 4.00363C99.3238 3.90789 99.0689 3.86046 98.8122 3.86409H63.9372L63.9375 3.87236Z"
          fill="#F5B241"/>
    <path fill-rule="evenodd" clip-rule="evenodd"
          d="M106.532 3.87987C106.025 3.88785 105.541 4.09449 105.185 4.45531C104.828 4.81612 104.627 5.30251 104.625 5.80981V17.4348C104.625 17.9486 104.829 18.4413 105.193 18.8047C105.556 19.168 106.049 19.3723 106.563 19.3723H118.188C118.571 19.3721 118.945 19.2584 119.264 19.0454C119.582 18.8325 119.83 18.53 119.977 18.176C120.123 17.8221 120.162 17.4326 120.087 17.0569C120.013 16.6811 119.828 16.3359 119.557 16.0649L107.932 4.43993C107.748 4.25776 107.529 4.11441 107.289 4.01823C107.049 3.92206 106.791 3.87489 106.532 3.87987ZM108.5 10.4873L113.503 15.4973H108.5V10.4873Z"
          fill="#F5B241"/>
</svg>
