<svg width="984" height="116" viewBox="0 0 984 116" fill="none" xmlns="http://www.w3.org/2000/svg">
    <path opacity="0.4"
          d="M7.16 108.24L7.89053 107.557L7.16 108.24ZM7.16 7.75999L7.89053 8.44288L7.16 7.75999ZM46.84 7.75999L46.1095 8.44288L46.84 7.75999ZM46.84 108.24L46.1095 107.557L46.84 108.24ZM27 114.6C18.5531 114.6 12.2376 112.207 7.89053 107.557L6.42947 108.923C11.2558 114.086 18.1669 116.6 27 116.6V114.6ZM7.89053 107.557C3.52825 102.89 1.28 96.233 1.28 87.44H-0.72C-0.72 96.567 1.61841 103.776 6.42947 108.923L7.89053 107.557ZM1.28 87.44V28.56H-0.72V87.44H1.28ZM1.28 28.56C1.28 19.767 3.52825 13.1095 7.89053 8.44288L6.42947 7.07711C1.61841 12.2238 -0.72 19.433 -0.72 28.56H1.28ZM7.89053 8.44288C12.2376 3.79254 18.5531 1.39999 27 1.39999V-0.600006C18.1669 -0.600006 11.2558 1.91411 6.42947 7.07711L7.89053 8.44288ZM27 1.39999C35.4469 1.39999 41.7624 3.79254 46.1095 8.44288L47.5705 7.07711C42.7442 1.91411 35.8331 -0.600006 27 -0.600006V1.39999ZM46.1095 8.44288C50.4717 13.1095 52.72 19.767 52.72 28.56H54.72C54.72 19.433 52.3816 12.2238 47.5705 7.07711L46.1095 8.44288ZM52.72 28.56V87.44H54.72V28.56H52.72ZM52.72 87.44C52.72 96.233 50.4717 102.89 46.1095 107.557L47.5705 108.923C52.3816 103.776 54.72 96.567 54.72 87.44H52.72ZM46.1095 107.557C41.7624 112.207 35.4469 114.6 27 114.6V116.6C35.8331 116.6 42.7442 114.086 47.5705 108.923L46.1095 107.557ZM27 100.6C30.2498 100.6 32.851 99.6073 34.611 97.4769C36.3407 95.383 37.12 92.3526 37.12 88.56H35.12C35.12 92.1274 34.3793 94.617 33.069 96.2031C31.789 97.7527 29.8302 98.6 27 98.6V100.6ZM37.12 88.56V27.44H35.12V88.56H37.12ZM37.12 27.44C37.12 23.6474 36.3407 20.617 34.611 18.5231C32.851 16.3927 30.2498 15.4 27 15.4V17.4C29.8302 17.4 31.789 18.2473 33.069 19.7969C34.3793 21.383 35.12 23.8726 35.12 27.44H37.12ZM27 15.4C23.7502 15.4 21.149 16.3927 19.389 18.5231C17.6593 20.617 16.88 23.6474 16.88 27.44H18.88C18.88 23.8726 19.6207 21.383 20.931 19.7969C22.211 18.2473 24.1698 17.4 27 17.4V15.4ZM16.88 27.44V88.56H18.88V27.44H16.88ZM16.88 88.56C16.88 92.3526 17.6593 95.383 19.389 97.4769C21.149 99.6073 23.7502 100.6 27 100.6V98.6C24.1698 98.6 22.211 97.7527 20.931 96.2031C19.6207 94.617 18.88 92.1274 18.88 88.56H16.88ZM71.7025 108.4L70.964 109.074L70.9714 109.082L71.7025 108.4ZM64.9825 1.99999V0.999992H63.9825V1.99999H64.9825ZM82.5825 1.99999H83.5825V0.999992H82.5825V1.99999ZM84.8225 97.04L84.0699 97.6985L84.0812 97.7114L84.093 97.7239L84.8225 97.04ZM98.1025 97.04L97.373 96.3561L97.3612 96.3686L97.3499 96.3815L98.1025 97.04ZM100.503 1.99999V0.999992H99.5025V1.99999H100.503ZM117.463 1.99999H118.463V0.999992H117.463V1.99999ZM110.743 108.4L111.474 109.082L111.481 109.074L110.743 108.4ZM91.2225 114.6C82.8788 114.6 76.672 112.259 72.4336 107.718L70.9714 109.082C75.693 114.141 82.4995 116.6 91.2225 116.6V114.6ZM72.441 107.726C68.1824 103.062 65.9825 96.3491 65.9825 87.44H63.9825C63.9825 96.6642 66.2626 103.925 70.964 109.074L72.441 107.726ZM65.9825 87.44V1.99999H63.9825V87.44H65.9825ZM64.9825 2.99999H82.5825V0.999992H64.9825V2.99999ZM81.5825 1.99999V88.72H83.5825V1.99999H81.5825ZM81.5825 88.72C81.5825 92.6475 82.3384 95.7196 84.0699 97.6985L85.5751 96.3815C84.32 94.9471 83.5825 92.4725 83.5825 88.72H81.5825ZM84.093 97.7239C85.9243 99.6773 88.4546 100.6 91.5425 100.6V98.6C88.8704 98.6 86.9207 97.816 85.552 96.3561L84.093 97.7239ZM91.5425 100.6C94.6273 100.6 97.123 99.678 98.8551 97.6985L97.3499 96.3815C96.0954 97.8153 94.2177 98.6 91.5425 98.6V100.6ZM98.832 97.7239C100.688 95.744 101.503 92.6604 101.503 88.72H99.5025C99.5025 92.4596 98.7168 94.9226 97.373 96.3561L98.832 97.7239ZM101.503 88.72V1.99999H99.5025V88.72H101.503ZM100.503 2.99999H117.463V0.999992H100.503V2.99999ZM116.463 1.99999V87.44H118.463V1.99999H116.463ZM116.463 87.44C116.463 96.3491 114.263 103.062 110.004 107.726L111.481 109.074C116.182 103.925 118.463 96.6642 118.463 87.44H116.463ZM110.011 107.718C105.773 112.259 99.5662 114.6 91.2225 114.6V116.6C99.9455 116.6 106.752 114.141 111.474 109.082L110.011 107.718ZM129.997 1.99999V0.999992H128.997V1.99999H129.997ZM175.917 8.4L175.201 9.09815L175.21 9.1071L175.917 8.4ZM170.637 56.72L170.264 55.7924L169.637 56.0447V56.72H170.637ZM170.637 57.04H169.637V57.784L170.35 57.9978L170.637 57.04ZM179.598 64.88L178.68 65.2769L178.684 65.2873L178.689 65.2975L179.598 64.88ZM182.637 108.24L181.643 108.345L181.644 108.35L182.637 108.24ZM184.238 114V115H185.776L185.151 113.594L184.238 114ZM166.318 114L165.375 114.333L165.61 115H166.318V114ZM162.158 69.04L161.373 69.6596L161.382 69.672L161.393 69.6841L162.158 69.04ZM147.598 66V65H146.598V66H147.598ZM147.598 114V115H148.598V114H147.598ZM129.997 114H128.997V115H129.997V114ZM161.837 47.28L161.13 46.5729L161.12 46.5836L161.109 46.5946L161.837 47.28ZM162.318 20.72L161.523 21.3274L161.534 21.3418L161.546 21.3557L162.318 20.72ZM147.598 18V17H146.598V18H147.598ZM147.598 50H146.598V51H147.598V50ZM129.997 2.99999H156.077V0.999992H129.997V2.99999ZM156.077 2.99999C165.013 2.99999 171.308 5.10518 175.202 9.09809L176.633 7.7019C172.207 3.16147 165.275 0.999992 156.077 0.999992V2.99999ZM175.21 9.1071C179.108 13.0052 181.158 19.1505 181.158 27.76H183.158C183.158 18.8761 181.047 12.1148 176.625 7.69289L175.21 9.1071ZM181.158 27.76V34.64H183.158V27.76H181.158ZM181.158 34.64C181.158 40.3531 180.213 44.9258 178.391 48.4174C176.581 51.8869 173.882 54.335 170.264 55.7924L171.011 57.6476C175.073 56.0117 178.134 53.2331 180.164 49.3426C182.182 45.4742 183.158 40.5536 183.158 34.64H181.158ZM169.637 56.72V57.04H171.637V56.72H169.637ZM170.35 57.9978C174.346 59.1965 177.095 61.6121 178.68 65.2769L180.515 64.4831C178.687 60.2546 175.462 57.4435 170.925 56.0822L170.35 57.9978ZM178.689 65.2975C180.419 69.0629 181.318 74.1826 181.318 80.72H183.318C183.318 74.0307 182.403 68.5905 180.506 64.4625L178.689 65.2975ZM181.318 80.72V100.4H183.318V80.72H181.318ZM181.318 100.4C181.318 103.618 181.425 106.269 181.643 108.345L183.632 108.135C183.424 106.157 183.318 103.582 183.318 100.4H181.318ZM181.644 108.35C181.869 110.381 182.432 112.4 183.324 114.406L185.151 113.594C184.336 111.76 183.832 109.939 183.631 108.13L181.644 108.35ZM184.238 113H166.318V115H184.238V113ZM167.26 113.667C166.639 111.907 166.231 110.268 166.029 108.748L164.046 109.012C164.27 110.692 164.716 112.466 165.375 114.333L167.26 113.667ZM166.029 108.748C165.825 107.222 165.717 104.404 165.717 100.24H163.717C163.717 104.396 163.823 107.338 164.046 109.012L166.029 108.748ZM165.717 100.24V79.76H163.717V100.24H165.717ZM165.717 79.76C165.717 74.5938 164.87 70.7081 162.922 68.3959L161.393 69.6841C162.859 71.4252 163.717 74.6862 163.717 79.76H165.717ZM162.942 68.4203C161.066 66.043 157.861 65 153.678 65V67C157.601 67 160.049 67.9837 161.373 69.6596L162.942 68.4203ZM153.678 65H147.598V67H153.678V65ZM146.598 66V114H148.598V66H146.598ZM147.598 113H129.997V115H147.598V113ZM130.997 114V1.99999H128.997V114H130.997ZM153.997 51C157.677 51 160.603 50.0509 162.566 47.9654L161.109 46.5946C159.659 48.1358 157.358 49 153.997 49V51ZM162.545 47.9871C164.637 45.8945 165.557 42.5253 165.557 38.16H163.557C163.557 42.328 162.664 45.0388 161.13 46.5729L162.545 47.9871ZM165.557 38.16V29.52H163.557V38.16H165.557ZM165.557 29.52C165.557 25.3873 164.804 22.1668 163.089 20.0843L161.546 21.3557C162.817 22.8998 163.557 25.5461 163.557 29.52H165.557ZM163.112 20.1125C161.474 17.9706 158.883 17 155.598 17V19C158.498 19 160.388 19.8427 161.523 21.3274L163.112 20.1125ZM155.598 17H147.598V19H155.598V17ZM146.598 18V50H148.598V18H146.598ZM147.598 51H153.997V49H147.598V51ZM220.154 1.99999V0.999992H219.154V1.99999H220.154ZM245.274 1.99999L246.264 1.86162L246.144 0.999992H245.274V1.99999ZM256.474 82.16L255.483 82.2984L255.604 83.16H256.474V82.16ZM256.794 82.16V83.16H257.664L257.784 82.2984L256.794 82.16ZM267.994 1.99999V0.999992H267.124L267.003 1.86162L267.994 1.99999ZM293.114 1.99999H294.114V0.999992H293.114V1.99999ZM293.114 114V115H294.114V114H293.114ZM276.474 114H275.474V115H276.474V114ZM276.474 29.2H277.474V28.2H276.474V29.2ZM276.154 29.2V28.2H275.293L275.165 29.0507L276.154 29.2ZM263.354 114V115H264.214L264.343 114.149L263.354 114ZM248.634 114L247.645 114.149L247.773 115H248.634V114ZM235.834 29.2L236.823 29.0507L236.694 28.2H235.834V29.2ZM235.514 29.2V28.2H234.514V29.2H235.514ZM235.514 114V115H236.514V114H235.514ZM220.154 114H219.154V115H220.154V114ZM220.154 2.99999H245.274V0.999992H220.154V2.99999ZM244.283 2.13837L255.483 82.2984L257.464 82.0216L246.264 1.86162L244.283 2.13837ZM256.474 83.16H256.794V81.16H256.474V83.16ZM257.784 82.2984L268.984 2.13837L267.003 1.86162L255.803 82.0216L257.784 82.2984ZM267.994 2.99999H293.114V0.999992H267.994V2.99999ZM292.114 1.99999V114H294.114V1.99999H292.114ZM293.114 113H276.474V115H293.114V113ZM277.474 114V29.2H275.474V114H277.474ZM276.474 28.2H276.154V30.2H276.474V28.2ZM275.165 29.0507L262.365 113.851L264.343 114.149L277.143 29.3492L275.165 29.0507ZM263.354 113H248.634V115H263.354V113ZM249.623 113.851L236.823 29.0507L234.845 29.3492L247.645 114.149L249.623 113.851ZM235.834 28.2H235.514V30.2H235.834V28.2ZM234.514 29.2V114H236.514V29.2H234.514ZM235.514 113H220.154V115H235.514V113ZM221.154 114V1.99999H219.154V114H221.154ZM319.848 1.99999V0.999992H318.997L318.861 1.83925L319.848 1.99999ZM343.688 1.99999L344.674 1.83925L344.538 0.999992H343.688V1.99999ZM361.927 114V115H363.104L362.914 113.839L361.927 114ZM344.328 114L343.338 114.142L343.461 115H344.328V114ZM341.128 91.76L342.117 91.6176L340.128 91.76H341.128ZM341.128 92.08V93.08H342.128V92.08H341.128ZM321.128 92.08V91.08H320.263L320.138 91.9355L321.128 92.08ZM317.927 114V115H318.792L318.917 114.144L317.927 114ZM301.608 114L300.621 113.839L300.431 115H301.608V114ZM339.048 76.88V77.88H340.199L340.038 76.7398L339.048 76.88ZM331.207 21.52L332.198 21.3798L332.076 20.52H331.207V21.52ZM330.888 21.52V20.52H330.017L329.897 21.3826L330.888 21.52ZM323.207 76.88L322.217 76.7426L322.059 77.88H323.207V76.88ZM319.848 2.99999H343.688V0.999992H319.848V2.99999ZM342.701 2.16073L360.941 114.161L362.914 113.839L344.674 1.83925L342.701 2.16073ZM361.927 113H344.328V115H361.927V113ZM345.317 113.858L342.117 91.6176L340.138 91.9024L343.338 114.142L345.317 113.858ZM340.128 91.76V92.08H342.128V91.76H340.128ZM341.128 91.08H321.128V93.08H341.128V91.08ZM320.138 91.9355L316.938 113.856L318.917 114.144L322.117 92.2244L320.138 91.9355ZM317.927 113H301.608V115H317.927V113ZM302.594 114.161L320.835 2.16073L318.861 1.83925L300.621 113.839L302.594 114.161ZM340.038 76.7398L332.198 21.3798L330.217 21.6602L338.057 77.0202L340.038 76.7398ZM331.207 20.52H330.888V22.52H331.207V20.52ZM329.897 21.3826L322.217 76.7426L324.198 77.0174L331.878 21.6574L329.897 21.3826ZM323.207 77.88H339.048V75.88H323.207V77.88ZM370.466 1.99999V0.999992H369.466V1.99999H370.466ZM388.066 1.99999H389.066V0.999992H388.066V1.99999ZM388.066 114V115H389.066V114H388.066ZM370.466 114H369.466V115H370.466V114ZM370.466 2.99999H388.066V0.999992H370.466V2.99999ZM387.066 1.99999V114H389.066V1.99999H387.066ZM388.066 113H370.466V115H388.066V113ZM371.466 114V1.99999H369.466V114H371.466ZM401.247 1.99999V0.999992H400.247V1.99999H401.247ZM423.328 1.99999L424.296 1.75256L424.104 0.999992H423.328V1.99999ZM440.448 69.04L439.479 69.2874L439.671 70.04H440.448V69.04ZM440.768 69.04V70.04H441.768V69.04H440.768ZM440.768 1.99999V0.999992H439.768V1.99999H440.768ZM456.448 1.99999H457.448V0.999992H456.448V1.99999ZM456.448 114V115H457.448V114H456.448ZM438.367 114L437.399 114.25L437.593 115H438.367V114ZM417.247 32.24L418.216 31.9899L418.022 31.24H417.247V32.24ZM416.927 32.24V31.24H415.927V32.24H416.927ZM416.927 114V115H417.927V114H416.927ZM401.247 114H400.247V115H401.247V114ZM401.247 2.99999H423.328V0.999992H401.247V2.99999ZM422.359 2.24742L439.479 69.2874L441.416 68.7926L424.296 1.75256L422.359 2.24742ZM440.448 70.04H440.768V68.04H440.448V70.04ZM441.768 69.04V1.99999H439.768V69.04H441.768ZM440.768 2.99999H456.448V0.999992H440.768V2.99999ZM455.448 1.99999V114H457.448V1.99999H455.448ZM456.448 113H438.367V115H456.448V113ZM439.336 113.75L418.216 31.9899L416.279 32.4901L437.399 114.25L439.336 113.75ZM417.247 31.24H416.927V33.24H417.247V31.24ZM415.927 32.24V114H417.927V32.24H415.927ZM416.927 113H401.247V115H416.927V113ZM402.247 114V1.99999H400.247V114H402.247ZM500.754 108.24L501.484 107.557L500.754 108.24ZM500.754 7.75999L501.484 8.44288L500.754 7.75999ZM540.434 7.75999L539.703 8.44288L540.434 7.75999ZM540.434 108.24L539.703 107.557L540.434 108.24ZM520.594 114.6C512.147 114.6 505.831 112.207 501.484 107.557L500.023 108.923C504.85 114.086 511.761 116.6 520.594 116.6V114.6ZM501.484 107.557C497.122 102.89 494.874 96.233 494.874 87.44H492.874C492.874 96.567 495.212 103.776 500.023 108.923L501.484 107.557ZM494.874 87.44V28.56H492.874V87.44H494.874ZM494.874 28.56C494.874 19.767 497.122 13.1095 501.484 8.44288L500.023 7.07711C495.212 12.2238 492.874 19.433 492.874 28.56H494.874ZM501.484 8.44288C505.831 3.79254 512.147 1.39999 520.594 1.39999V-0.600006C511.761 -0.600006 504.85 1.91411 500.023 7.07711L501.484 8.44288ZM520.594 1.39999C529.041 1.39999 535.356 3.79254 539.703 8.44288L541.164 7.07711C536.338 1.91411 529.427 -0.600006 520.594 -0.600006V1.39999ZM539.703 8.44288C544.065 13.1095 546.314 19.767 546.314 28.56H548.314C548.314 19.433 545.975 12.2238 541.164 7.07711L539.703 8.44288ZM546.314 28.56V87.44H548.314V28.56H546.314ZM546.314 87.44C546.314 96.233 544.065 102.89 539.703 107.557L541.164 108.923C545.975 103.776 548.314 96.567 548.314 87.44H546.314ZM539.703 107.557C535.356 112.207 529.041 114.6 520.594 114.6V116.6C529.427 116.6 536.338 114.086 541.164 108.923L539.703 107.557ZM520.594 100.6C523.844 100.6 526.445 99.6073 528.205 97.4769C529.934 95.383 530.714 92.3526 530.714 88.56H528.714C528.714 92.1274 527.973 94.617 526.663 96.2031C525.383 97.7527 523.424 98.6 520.594 98.6V100.6ZM530.714 88.56V27.44H528.714V88.56H530.714ZM530.714 27.44C530.714 23.6474 529.934 20.617 528.205 18.5231C526.445 16.3927 523.844 15.4 520.594 15.4V17.4C523.424 17.4 525.383 18.2473 526.663 19.7969C527.973 21.383 528.714 23.8726 528.714 27.44H530.714ZM520.594 15.4C517.344 15.4 514.743 16.3927 512.983 18.5231C511.253 20.617 510.474 23.6474 510.474 27.44H512.474C512.474 23.8726 513.214 21.383 514.525 19.7969C515.805 18.2473 517.764 17.4 520.594 17.4V15.4ZM510.474 27.44V88.56H512.474V27.44H510.474ZM510.474 88.56C510.474 92.3526 511.253 95.383 512.983 97.4769C514.743 99.6073 517.344 100.6 520.594 100.6V98.6C517.764 98.6 515.805 97.7527 514.525 96.2031C513.214 94.617 512.474 92.1274 512.474 88.56H510.474ZM559.216 1.99999V0.999992H558.216V1.99999H559.216ZM605.616 8.4L604.9 9.09815L604.909 9.1071L605.616 8.4ZM608.976 46.32L608.092 45.8521L608.087 45.8624L608.082 45.8728L608.976 46.32ZM600.496 54.16L600.112 53.2369L599.496 53.4933V54.16H600.496ZM600.496 54.48H599.496V55.1952L600.173 55.4263L600.496 54.48ZM606.736 107.28L607.443 107.987L606.736 107.28ZM559.216 114H558.216V115H559.216V114ZM591.536 44.88L590.829 44.1729L590.818 44.1836L590.808 44.1946L591.536 44.88ZM592.016 20.72L591.222 21.3274L591.233 21.3418L591.244 21.3557L592.016 20.72ZM576.816 18V17H575.816V18H576.816ZM576.816 47.6H575.816V48.6H576.816V47.6ZM593.776 95.6L594.507 96.2823L594.518 96.2706L594.529 96.2585L593.776 95.6ZM593.296 66.64L592.531 67.2841L592.55 67.3059L592.569 67.3266L593.296 66.64ZM576.816 63.6V62.6H575.816V63.6H576.816ZM576.816 98H575.816V99H576.816V98ZM559.216 2.99999H585.776V0.999992H559.216V2.99999ZM585.776 2.99999C594.712 2.99999 601.007 5.10518 604.9 9.09809L606.332 7.7019C601.905 3.16147 594.974 0.999992 585.776 0.999992V2.99999ZM604.909 9.1071C608.807 13.0052 610.856 19.1505 610.856 27.76H612.856C612.856 18.8761 610.745 12.1148 606.323 7.69289L604.909 9.1071ZM610.856 27.76V32.24H612.856V27.76H610.856ZM610.856 32.24C610.856 37.899 609.912 42.416 608.092 45.8521L609.86 46.7879C611.881 42.9707 612.856 38.101 612.856 32.24H610.856ZM608.082 45.8728C606.379 49.2788 603.736 51.7266 600.112 53.2369L600.881 55.0831C604.936 53.3934 607.947 50.6146 609.871 46.7672L608.082 45.8728ZM599.496 54.16V54.48H601.496V54.16H599.496ZM600.173 55.4263C604.323 56.8432 607.403 59.379 609.464 63.0497C611.54 66.7447 612.616 71.6518 612.616 77.84H614.616C614.616 71.4415 613.506 66.162 611.208 62.0703C608.896 57.9543 605.417 55.1034 600.819 53.5336L600.173 55.4263ZM612.616 77.84V87.44H614.616V77.84H612.616ZM612.616 87.44C612.616 95.9058 610.372 102.23 606.029 106.573L607.443 107.987C612.273 103.157 614.616 96.2542 614.616 87.44H612.616ZM606.029 106.573C601.799 110.803 595.481 113 586.896 113V115C595.805 115 602.714 112.717 607.443 107.987L606.029 106.573ZM586.896 113H559.216V115H586.896V113ZM560.216 114V1.99999H558.216V114H560.216ZM583.696 48.6C587.376 48.6 590.302 47.6509 592.264 45.5654L590.808 44.1946C589.358 45.7358 587.057 46.6 583.696 46.6V48.6ZM592.243 45.5871C594.336 43.4945 595.256 40.1253 595.256 35.76H593.256C593.256 39.928 592.363 42.6388 590.829 44.1729L592.243 45.5871ZM595.256 35.76V29.52H593.256V35.76H595.256ZM595.256 29.52C595.256 25.3873 594.503 22.1668 592.788 20.0843L591.244 21.3557C592.516 22.8998 593.256 25.5461 593.256 29.52H595.256ZM592.811 20.1125C591.173 17.9706 588.582 17 585.296 17V19C588.197 19 590.086 19.8427 591.222 21.3274L592.811 20.1125ZM585.296 17H576.816V19H585.296V17ZM575.816 18V47.6H577.816V18H575.816ZM576.816 48.6H583.696V46.6H576.816V48.6ZM586.896 99C590.15 99 592.758 98.1571 594.507 96.2823L593.045 94.9177C591.808 96.2429 589.83 97 586.896 97V99ZM594.529 96.2585C596.267 94.2723 597.016 91.0841 597.016 86.96H595.016C595.016 90.9426 594.272 93.5143 593.024 94.9415L594.529 96.2585ZM597.016 86.96V77.2H595.016V86.96H597.016ZM597.016 77.2C597.016 72.0342 596.116 68.1695 594.023 65.9534L592.569 67.3266C594.103 68.9505 595.016 72.1258 595.016 77.2H597.016ZM594.061 65.9959C592.082 63.6459 588.847 62.6 584.656 62.6V64.6C588.572 64.6 591.097 65.5808 592.531 67.2841L594.061 65.9959ZM584.656 62.6H576.816V64.6H584.656V62.6ZM575.816 63.6V98H577.816V63.6H575.816ZM576.816 99H586.896V97H576.816V99ZM619.904 114H618.904V114.827L619.717 114.982L619.904 114ZM619.904 98L620.146 97.0299L618.904 96.7192V98H619.904ZM633.504 96.08L634.211 96.7871L634.222 96.7764L634.232 96.7654L633.504 96.08ZM636.064 1.99999V0.999992H635.064V1.99999H636.064ZM653.664 1.99999H654.664V0.999992H653.664V1.99999ZM647.264 107.92L646.54 107.23L646.531 107.24L647.264 107.92ZM628.064 113.64C624.904 113.64 622.25 113.429 620.091 113.018L619.717 114.982C622.037 115.424 624.824 115.64 628.064 115.64V113.64ZM620.904 114V98H618.904V114H620.904ZM619.661 98.9701C621.462 99.4203 623.465 99.64 625.664 99.64V97.64C623.596 97.64 621.759 97.433 620.146 97.0299L619.661 98.9701ZM625.664 99.64C629.328 99.64 632.245 98.7526 634.211 96.7871L632.797 95.3729C631.349 96.8208 629.04 97.64 625.664 97.64V99.64ZM634.232 96.7654C636.179 94.6969 637.064 91.6862 637.064 87.92H635.064C635.064 91.4071 634.242 93.8364 632.776 95.3946L634.232 96.7654ZM637.064 87.92V1.99999H635.064V87.92H637.064ZM636.064 2.99999H653.664V0.999992H636.064V2.99999ZM652.664 1.99999V87.44H654.664V1.99999H652.664ZM652.664 87.44C652.664 96.4787 650.56 103.009 646.54 107.23L647.988 108.61C652.501 103.871 654.664 96.7479 654.664 87.44H652.664ZM646.531 107.24C642.628 111.443 636.543 113.64 628.064 113.64V115.64C636.864 115.64 643.58 113.357 647.997 108.6L646.531 107.24ZM666.247 1.99999V0.999992H665.247V1.99999H666.247ZM714.247 1.99999H715.247V0.999992H714.247V1.99999ZM714.247 18V19H715.247V18H714.247ZM683.847 18V17H682.847V18H683.847ZM683.847 47.6H682.847V48.6H683.847V47.6ZM708.008 47.6H709.008V46.6H708.008V47.6ZM708.008 63.6V64.6H709.008V63.6H708.008ZM683.847 63.6V62.6H682.847V63.6H683.847ZM683.847 98H682.847V99H683.847V98ZM714.247 98H715.247V97H714.247V98ZM714.247 114V115H715.247V114H714.247ZM666.247 114H665.247V115H666.247V114ZM666.247 2.99999H714.247V0.999992H666.247V2.99999ZM713.247 1.99999V18H715.247V1.99999H713.247ZM714.247 17H683.847V19H714.247V17ZM682.847 18V47.6H684.847V18H682.847ZM683.847 48.6H708.008V46.6H683.847V48.6ZM707.008 47.6V63.6H709.008V47.6H707.008ZM708.008 62.6H683.847V64.6H708.008V62.6ZM682.847 63.6V98H684.847V63.6H682.847ZM683.847 99H714.247V97H683.847V99ZM713.247 98V114H715.247V98H713.247ZM714.247 113H666.247V115H714.247V113ZM667.247 114V1.99999H665.247V114H667.247ZM729.812 108.4L729.073 109.074L729.081 109.082L729.812 108.4ZM729.812 7.6L729.081 6.91763L729.073 6.92651L729.812 7.6ZM768.372 7.6L767.633 8.27353L767.641 8.28231L768.372 7.6ZM775.093 39.76V40.76H776.093V39.76H775.093ZM758.453 39.76H757.453V40.76H758.453V39.76ZM758.453 72.24V71.24H757.453V72.24H758.453ZM775.093 72.24H776.093V71.24H775.093V72.24ZM768.372 108.4L767.641 107.718L767.633 107.727L768.372 108.4ZM749.172 114.6C740.94 114.6 734.784 112.261 730.544 107.718L729.081 109.082C733.801 114.139 740.552 116.6 749.172 116.6V114.6ZM730.552 107.727C726.397 103.167 724.253 96.6653 724.253 88.08H722.253C722.253 96.9881 724.481 104.033 729.073 109.073L730.552 107.727ZM724.253 88.08V27.92H722.253V88.08H724.253ZM724.253 27.92C724.253 19.3347 726.397 12.8334 730.552 8.27349L729.073 6.92651C724.481 11.9666 722.253 19.0119 722.253 27.92H724.253ZM730.544 8.28231C734.784 3.73864 740.94 1.39999 749.172 1.39999V-0.600006C740.552 -0.600006 733.801 1.86135 729.081 6.91768L730.544 8.28231ZM749.172 1.39999C757.406 1.39999 763.502 3.73904 767.633 8.27349L769.112 6.92651C764.496 1.86095 757.792 -0.600006 749.172 -0.600006V1.39999ZM767.641 8.28231C771.898 12.8426 774.093 19.3406 774.093 27.92H776.093C776.093 19.0061 773.807 11.9574 769.104 6.91768L767.641 8.28231ZM774.093 27.92V39.76H776.093V27.92H774.093ZM775.093 38.76H758.453V40.76H775.093V38.76ZM759.453 39.76V26.8H757.453V39.76H759.453ZM759.453 26.8C759.453 23.2162 758.698 20.3419 757.016 18.3541C755.307 16.3342 752.788 15.4 749.653 15.4V17.4C752.384 17.4 754.265 18.1991 755.489 19.6459C756.74 21.1248 757.453 23.4505 757.453 26.8H759.453ZM749.653 15.4C746.517 15.4 743.998 16.3342 742.289 18.3541C740.607 20.3419 739.852 23.2162 739.852 26.8H741.852C741.852 23.4505 742.565 21.1248 743.816 19.6459C745.04 18.1991 746.921 17.4 749.653 17.4V15.4ZM739.852 26.8V89.36H741.852V26.8H739.852ZM739.852 89.36C739.852 92.8935 740.608 95.7303 742.294 97.6918C744.005 99.6823 746.522 100.6 749.653 100.6V98.6C746.916 98.6 745.034 97.8111 743.811 96.3882C742.563 94.9364 741.852 92.6532 741.852 89.36H739.852ZM749.653 100.6C752.783 100.6 755.3 99.6823 757.011 97.6918C758.697 95.7303 759.453 92.8935 759.453 89.36H757.453C757.453 92.6532 756.742 94.9364 755.494 96.3882C754.271 97.8111 752.389 98.6 749.653 98.6V100.6ZM759.453 89.36V72.24H757.453V89.36H759.453ZM758.453 73.24H775.093V71.24H758.453V73.24ZM774.093 72.24V88.08H776.093V72.24H774.093ZM774.093 88.08C774.093 96.6594 771.898 103.157 767.641 107.718L769.104 109.082C773.807 104.043 776.093 96.9939 776.093 88.08H774.093ZM767.633 107.727C763.502 112.261 757.406 114.6 749.172 114.6V116.6C757.792 116.6 764.496 114.139 769.112 109.073L767.633 107.727ZM799.383 18H800.383V17H799.383V18ZM780.982 18H779.982V19H780.982V18ZM780.982 1.99999V0.999992H779.982V1.99999H780.982ZM835.383 1.99999H836.383V0.999992H835.383V1.99999ZM835.383 18V19H836.383V18H835.383ZM816.982 18V17H815.982V18H816.982ZM816.982 114V115H817.982V114H816.982ZM799.383 114H798.383V115H799.383V114ZM799.383 17H780.982V19H799.383V17ZM781.982 18V1.99999H779.982V18H781.982ZM780.982 2.99999H835.383V0.999992H780.982V2.99999ZM834.383 1.99999V18H836.383V1.99999H834.383ZM835.383 17H816.982V19H835.383V17ZM815.982 18V114H817.982V18H815.982ZM816.982 113H799.383V115H816.982V113ZM800.383 114V18H798.383V114H800.383ZM843.904 1.99999V0.999992H842.904V1.99999H843.904ZM861.504 1.99999H862.504V0.999992H861.504V1.99999ZM861.504 114V115H862.504V114H861.504ZM843.904 114H842.904V115H843.904V114ZM843.904 2.99999H861.504V0.999992H843.904V2.99999ZM860.504 1.99999V114H862.504V1.99999H860.504ZM861.504 113H843.904V115H861.504V113ZM844.904 114V1.99999H842.904V114H844.904ZM870.045 1.99999V0.999992H868.882L869.056 2.14971L870.045 1.99999ZM887.805 1.99999L888.796 1.86855L888.681 0.999992H887.805V1.99999ZM899.325 88.88L898.334 89.0114L898.449 89.88H899.325V88.88ZM899.645 88.88V89.88H900.521L900.636 89.0114L899.645 88.88ZM911.165 1.99999V0.999992H910.289L910.174 1.86855L911.165 1.99999ZM927.325 1.99999L928.314 2.14971L928.488 0.999992H927.325V1.99999ZM910.365 114V115H911.225L911.354 114.15L910.365 114ZM887.005 114L886.016 114.15L886.145 115H887.005V114ZM870.045 2.99999H887.805V0.999992H870.045V2.99999ZM886.814 2.13144L898.334 89.0114L900.316 88.7486L888.796 1.86855L886.814 2.13144ZM899.325 89.88H899.645V87.88H899.325V89.88ZM900.636 89.0114L912.156 2.13144L910.174 1.86855L898.654 88.7486L900.636 89.0114ZM911.165 2.99999H927.325V0.999992H911.165V2.99999ZM926.336 1.85027L909.376 113.85L911.354 114.15L928.314 2.14971L926.336 1.85027ZM910.365 113H887.005V115H910.365V113ZM887.994 113.85L871.034 1.85027L869.056 2.14971L886.016 114.15L887.994 113.85ZM935.779 1.99999V0.999992H934.779V1.99999H935.779ZM983.779 1.99999H984.779V0.999992H983.779V1.99999ZM983.779 18V19H984.779V18H983.779ZM953.379 18V17H952.379V18H953.379ZM953.379 47.6H952.379V48.6H953.379V47.6ZM977.539 47.6H978.539V46.6H977.539V47.6ZM977.539 63.6V64.6H978.539V63.6H977.539ZM953.379 63.6V62.6H952.379V63.6H953.379ZM953.379 98H952.379V99H953.379V98ZM983.779 98H984.779V97H983.779V98ZM983.779 114V115H984.779V114H983.779ZM935.779 114H934.779V115H935.779V114ZM935.779 2.99999H983.779V0.999992H935.779V2.99999ZM982.779 1.99999V18H984.779V1.99999H982.779ZM983.779 17H953.379V19H983.779V17ZM952.379 18V47.6H954.379V18H952.379ZM953.379 48.6H977.539V46.6H953.379V48.6ZM976.539 47.6V63.6H978.539V47.6H976.539ZM977.539 62.6H953.379V64.6H977.539V62.6ZM952.379 63.6V98H954.379V63.6H952.379ZM953.379 99H983.779V97H953.379V99ZM982.779 98V114H984.779V98H982.779ZM983.779 113H935.779V115H983.779V113ZM936.779 114V1.99999H934.779V114H936.779Z"
          fill="white"/>
</svg>
